<svg width="169" height="150" viewBox="0 0 169 150" fill="none" xmlns="http://www.w3.org/2000/svg">
<g filter="url(#filter0_d_274_32432)">
<g clip-path="url(#clip0_274_32432)">
<rect x="10" y="10" width="150" height="129.825" rx="14.0351" fill="url(#paint0_linear_274_32432)"/>
<path d="M17.8627 35.6755C18.3399 34.9644 18.8919 34.2112 19.5188 33.4159C20.1551 32.6112 20.5106 32.1574 20.5855 32.0545C21.465 30.7913 21.9048 29.7668 21.9048 28.9808C21.9048 28.4568 21.7551 28.0358 21.4557 27.7176C21.1562 27.3995 20.7586 27.2404 20.2627 27.2404C19.5703 27.2404 18.8545 27.6334 18.1153 28.4194V26.7773C18.8919 26.2065 19.6685 25.9212 20.4451 25.9212C21.2872 25.9212 21.9703 26.1878 22.4942 26.7212C23.0182 27.2545 23.2802 27.9562 23.2802 28.8264C23.2802 29.603 23.0416 30.4124 22.5644 31.2545C22.0872 32.0872 21.3434 33.0978 20.3328 34.2861H23.9539V35.6755H17.8627ZM24.7944 35.6755C25.2715 34.9644 25.8236 34.2112 26.4505 33.4159C27.0868 32.6112 27.4423 32.1574 27.5172 32.0545C28.3967 30.7913 28.8365 29.7668 28.8365 28.9808C28.8365 28.4568 28.6868 28.0358 28.3873 27.7176C28.0879 27.3995 27.6903 27.2404 27.1944 27.2404C26.502 27.2404 25.7862 27.6334 25.047 28.4194V26.7773C25.8236 26.2065 26.6002 25.9212 27.3768 25.9212C28.2189 25.9212 28.902 26.1878 29.4259 26.7212C29.9499 27.2545 30.2119 27.9562 30.2119 28.8264C30.2119 29.603 29.9733 30.4124 29.4961 31.2545C29.0189 32.0872 28.2751 33.0978 27.2645 34.2861H30.8856V35.6755H24.7944ZM32.091 35.6755V26.0896H33.3541V35.6755H32.091ZM37.6769 29.3457L35.0243 32.2369L38.2103 35.6755H36.4839L33.3962 32.3071L36.119 29.3457H37.6769ZM42.1737 35.479C41.7808 35.6943 41.327 35.8019 40.8123 35.8019C40.0638 35.8019 39.5539 35.6241 39.2825 35.2685C39.0112 34.9036 38.8755 34.2954 38.8755 33.444V30.4404H37.7948V30.3141L40.0123 27.872H40.1527V29.3457H42.1316V30.4404H40.1527V33.3457C40.1527 33.8323 40.2088 34.1644 40.3211 34.3422C40.4334 34.5106 40.686 34.5948 41.079 34.5948C41.4626 34.5948 41.8275 34.4919 42.1737 34.2861V35.479ZM46.1347 30.8475C46.1347 29.5095 46.6353 28.3539 47.6365 27.3808C48.647 26.4171 49.8493 25.9352 51.2435 25.9352C52.6751 25.9352 53.8821 26.4171 54.8645 27.3808C55.8657 28.3539 56.3663 29.5375 56.3663 30.9317C56.3663 32.2978 55.8704 33.4533 54.8786 34.3983C53.868 35.3621 52.6563 35.844 51.2435 35.844C49.8306 35.844 48.6283 35.3621 47.6365 34.3983C46.6353 33.4252 46.1347 32.2416 46.1347 30.8475ZM47.5944 30.8896C47.5944 31.9001 47.9499 32.7609 48.661 33.472C49.3534 34.1831 50.2142 34.5387 51.2435 34.5387C52.2634 34.5387 53.1289 34.1831 53.84 33.472C54.5511 32.7609 54.9066 31.9001 54.9066 30.8896C54.9066 29.9071 54.5464 29.0463 53.8259 28.3071C53.1242 27.5866 52.2634 27.2264 51.2435 27.2264C50.261 27.2264 49.4002 27.5866 48.661 28.3071C47.9499 28.9995 47.5944 29.8603 47.5944 30.8896ZM57.5281 35.6755V29.3457H58.7913V30.7212C59.1188 30.1972 59.4229 29.8182 59.7036 29.5843C59.9843 29.3504 60.3024 29.2334 60.658 29.2334C61.0977 29.2334 61.5796 29.4393 62.1036 29.851L61.4158 30.9738C61.0229 30.6369 60.6299 30.4685 60.2369 30.4685C59.9001 30.4685 59.6006 30.6135 59.3387 30.9036C59.086 31.1843 58.9036 31.582 58.7913 32.0966V35.6755H57.5281ZM62.6229 35.6755V29.3457H63.886V30.1176C64.4942 29.5375 65.1445 29.2475 65.8369 29.2475C66.5293 29.2475 67.072 29.4486 67.465 29.851C67.858 30.244 68.0544 30.7866 68.0544 31.479V35.6755H66.7913V31.8019C66.7913 30.8007 66.3468 30.3001 65.458 30.3001C64.8498 30.3001 64.3258 30.5714 63.886 31.1141V35.6755H62.6229ZM72.6302 35.1562C72.0314 35.5773 71.4232 35.7878 70.8057 35.7878C70.2349 35.7878 69.7904 35.6521 69.4723 35.3808C69.1542 35.1001 68.9951 34.7258 68.9951 34.258C68.9951 33.3691 69.6922 32.6907 71.0864 32.2229L72.5881 31.7176C72.5975 31.6521 72.6021 31.5633 72.6021 31.451C72.6021 31.0767 72.5086 30.8054 72.3214 30.6369C72.1343 30.4685 71.8302 30.3843 71.4092 30.3843C70.6887 30.3843 69.9495 30.679 69.1916 31.2685V30.0194C69.8559 29.4861 70.6466 29.2194 71.5635 29.2194C72.3869 29.2194 72.9811 29.4019 73.346 29.7668C73.7109 30.1317 73.8934 30.7071 73.8934 31.4931V34.1738C73.8934 34.5855 73.9776 34.7913 74.146 34.7913C74.2864 34.7913 74.5062 34.6744 74.8057 34.4404V35.2124C74.3565 35.596 73.884 35.7878 73.3881 35.7878C72.9203 35.7878 72.6676 35.5773 72.6302 35.1562ZM72.5881 34.3843V32.5317C71.7928 32.775 71.2173 33.0089 70.8618 33.2334C70.5156 33.458 70.3425 33.7293 70.3425 34.0475C70.3425 34.3095 70.4267 34.5106 70.5951 34.651C70.7635 34.7913 70.9975 34.8615 71.2969 34.8615C71.746 34.8615 72.1764 34.7024 72.5881 34.3843ZM75.3897 35.6755V29.3457H76.6529V30.1176C77.2611 29.5375 77.9114 29.2475 78.6038 29.2475C79.502 29.2475 80.157 29.603 80.5687 30.3141C81.2892 29.603 82.0143 29.2475 82.7441 29.2475C83.4365 29.2475 83.9792 29.4486 84.3722 29.851C84.7745 30.244 84.9757 30.7866 84.9757 31.479V35.6755H83.6985V31.8019C83.6985 31.2872 83.5909 30.9083 83.3757 30.665C83.1699 30.4217 82.8377 30.3001 82.3792 30.3001C81.7617 30.3001 81.233 30.5714 80.7933 31.1141V35.6755H79.5582V31.8019C79.5582 30.8007 79.1137 30.3001 78.2248 30.3001C77.6166 30.3001 77.0927 30.5714 76.6529 31.1141V35.6755H75.3897ZM87.3048 31.8299H90.6592C90.6217 31.3714 90.4533 31.0019 90.1539 30.7212C89.8638 30.4404 89.4989 30.3001 89.0592 30.3001C88.0767 30.3001 87.4919 30.81 87.3048 31.8299ZM91.9363 35.0019C91.1036 35.5445 90.21 35.8159 89.2556 35.8159C88.2545 35.8159 87.4545 35.5071 86.8556 34.8896C86.2662 34.2627 85.9714 33.4346 85.9714 32.4054C85.9714 31.4603 86.2568 30.6931 86.8276 30.1036C87.3983 29.5141 88.1469 29.2194 89.0732 29.2194C89.9808 29.2194 90.7013 29.5188 91.2346 30.1176C91.7773 30.7071 92.0486 31.5165 92.0486 32.5457V32.7282H87.3048C87.3422 33.327 87.5387 33.7948 87.8942 34.1317C88.2498 34.4685 88.727 34.6369 89.3258 34.6369C90.1305 34.6369 91.0007 34.3375 91.9363 33.7387V35.0019ZM93.0771 35.6755V29.3457H94.3403V30.1176C94.9485 29.5375 95.5988 29.2475 96.2912 29.2475C96.9836 29.2475 97.5263 29.4486 97.9192 29.851C98.3122 30.244 98.5087 30.7866 98.5087 31.479V35.6755H97.2456V31.8019C97.2456 30.8007 96.8011 30.3001 95.9122 30.3001C95.304 30.3001 94.7801 30.5714 94.3403 31.1141V35.6755H93.0771ZM103.421 35.479C103.028 35.6943 102.575 35.8019 102.06 35.8019C101.311 35.8019 100.801 35.6241 100.53 35.2685C100.259 34.9036 100.123 34.2954 100.123 33.444V30.4404H99.0424V30.3141L101.26 27.872H101.4V29.3457H103.379V30.4404H101.4V33.3457C101.4 33.8323 101.456 34.1644 101.569 34.3422C101.681 34.5106 101.934 34.5948 102.327 34.5948C102.71 34.5948 103.075 34.4919 103.421 34.2861V35.479Z" fill="#151515"/>
<g clip-path="url(#clip1_274_32432)">
<path d="M18.0709 64.3721H37.0188C37.2106 64.3715 37.3987 64.3186 37.5627 64.2191C37.7267 64.1196 37.8604 63.9772 37.9495 63.8073C38.0387 63.6374 38.0797 63.4464 38.0684 63.2549C38.057 63.0634 37.9937 62.8787 37.8851 62.7205L28.4112 49.0359C28.0185 48.4685 27.0732 48.4685 26.6795 49.0359L17.2056 62.7205C17.0959 62.8783 17.0316 63.0632 17.0196 63.255C17.0077 63.4468 17.0485 63.6383 17.1377 63.8085C17.2269 63.9788 17.361 64.1213 17.5256 64.2207C17.6901 64.32 17.8787 64.3724 18.0709 64.3721Z" fill="#40812D"/>
</g>
<path d="M48.5744 64.4912L44.5955 57.5438V56.6175H45.0586C45.8025 56.6175 46.4271 56.5474 46.9323 56.407C47.4516 56.2666 47.8586 56.0351 48.1534 55.7123C48.4481 55.3895 48.6236 54.9474 48.6797 54.3859H44.5955V53.0386H48.6586C48.5604 52.5193 48.3639 52.0982 48.0692 51.7754C47.7744 51.4386 47.3744 51.193 46.8692 51.0386C46.3779 50.8842 45.7744 50.807 45.0586 50.807H44.5955V49.4596H53.3113V50.807H49.3323C49.6551 51.0737 49.9218 51.3895 50.1323 51.7544C50.3429 52.1193 50.4762 52.5474 50.5323 53.0386H53.3113V54.3859H50.5744C50.4762 55.4105 50.0832 56.2105 49.3955 56.7859C48.7218 57.3474 47.8236 57.7052 46.7007 57.8596L50.7218 64.4912H48.5744Z" fill="#151515"/>
<path d="M62.709 57.8807C61.7827 58.3298 60.9967 58.5544 60.3511 58.5544C59.1721 58.5544 58.1897 58.1474 57.4037 57.3333C56.6318 56.5193 56.2458 55.5017 56.2458 54.2807C56.2458 53.0035 56.6739 51.9509 57.53 51.1228C58.3862 50.2807 59.4739 49.8596 60.7932 49.8596C62.1406 49.8596 63.2213 50.3228 64.0353 51.2491C64.8634 52.1754 65.2774 53.4105 65.2774 54.9544C65.2774 56.8631 64.7791 58.6456 63.7827 60.3017C62.7862 61.9579 61.3195 63.4316 59.3827 64.7228L58.2669 63.3123C60.6949 61.6561 62.1756 59.8456 62.709 57.8807ZM63.0669 55.6702C63.1511 55.2491 63.1932 54.9544 63.1932 54.7859C63.1932 53.8877 62.9546 53.1649 62.4774 52.6175C62.0142 52.0561 61.4037 51.7754 60.6458 51.7754C59.9581 51.7754 59.4037 51.993 58.9827 52.4281C58.5616 52.8631 58.3511 53.4386 58.3511 54.1544C58.3511 54.8702 58.5686 55.4596 59.0037 55.9228C59.4388 56.3719 59.9932 56.5965 60.6669 56.5965C61.6072 56.5965 62.4072 56.2877 63.0669 55.6702ZM68.1802 64.6807C67.5767 64.3719 67.2749 63.9509 67.2749 63.4175C67.2749 63.0666 67.3872 62.7789 67.6118 62.5544C67.8504 62.3158 68.1311 62.1965 68.4539 62.1965C68.8609 62.1965 69.1907 62.3719 69.4433 62.7228C69.71 63.0737 69.8433 63.5509 69.8433 64.1544C69.8433 65.6702 69.0223 66.7017 67.3802 67.2491L67.3591 66.8702C67.9065 66.407 68.1802 65.7684 68.1802 64.9544V64.6807ZM75.2739 64.4912V50.1123H77.316V64.4912H75.2739ZM82.3662 63.7754V61.6491C83.4329 62.3088 84.4995 62.6386 85.5662 62.6386C86.4785 62.6386 87.2013 62.407 87.7346 61.9438C88.268 61.4666 88.5346 60.8491 88.5346 60.0912C88.5346 59.2351 88.2118 58.5684 87.5662 58.0912C86.9206 57.6 85.9943 57.3544 84.7873 57.3544C84.4083 57.3544 83.9241 57.4316 83.3346 57.5859L83.5873 50.1123H89.9241V51.8596H85.3767L85.2294 55.5438H85.5452C87.1031 55.5438 88.3381 55.9579 89.2504 56.7859C90.1627 57.6 90.6188 58.6877 90.6188 60.0491C90.6188 61.3824 90.1487 62.4982 89.2083 63.3965C88.268 64.2947 87.068 64.7438 85.6083 64.7438C84.6539 64.7438 83.5732 64.421 82.3662 63.7754ZM92.7637 63.7754V61.6491C93.8304 62.3088 94.8971 62.6386 95.9637 62.6386C96.876 62.6386 97.5988 62.407 98.1322 61.9438C98.6655 61.4666 98.9322 60.8491 98.9322 60.0912C98.9322 59.2351 98.6094 58.5684 97.9637 58.0912C97.3181 57.6 96.3918 57.3544 95.1848 57.3544C94.8058 57.3544 94.3216 57.4316 93.7322 57.5859L93.9848 50.1123H100.322V51.8596H95.7743L95.6269 55.5438H95.9427C97.5006 55.5438 98.7357 55.9579 99.648 56.7859C100.56 57.6 101.016 58.6877 101.016 60.0491C101.016 61.3824 100.546 62.4982 99.6058 63.3965C98.6655 64.2947 97.4655 64.7438 96.0058 64.7438C95.0515 64.7438 93.9708 64.421 92.7637 63.7754Z" fill="#151515"/>
<path d="M19.0317 85.2808V76.893H24.0791V77.9615H20.2229V80.5036H23.9685V81.5843H20.2229V84.2001H24.2019V85.2808H19.0317ZM24.631 85.2808L26.8661 82.4194L24.6801 79.7422H26.0433L27.5293 81.6211L28.9907 79.7422H30.3538L28.2293 82.3948L30.5626 85.2808H29.224L27.5661 83.2422L25.9696 85.2808H24.631ZM35.4207 83.9667V85.0966C34.8639 85.293 34.3318 85.3913 33.8242 85.3913C32.9154 85.3913 32.1704 85.1211 31.5891 84.5808C31.016 84.0322 30.7294 83.3404 30.7294 82.5053C30.7294 81.6948 31.016 81.0112 31.5891 80.4544C32.1622 79.8977 32.8908 79.6194 33.7751 79.6194C34.3072 79.6194 34.8271 79.734 35.3347 79.9632V81.1422C34.8271 80.8392 34.3195 80.6878 33.8119 80.6878C33.2388 80.6878 32.7721 80.8597 32.4119 81.2036C32.0598 81.5392 31.8838 81.9732 31.8838 82.5053C31.8838 83.0457 32.0639 83.4878 32.4242 83.8316C32.7844 84.1755 33.2634 84.3474 33.861 84.3474C34.4014 84.3474 34.9212 84.2205 35.4207 83.9667ZM36.3961 85.2808V76.893H37.5014V85.2808H36.3961ZM39.1462 85.1702C39.007 85.0311 38.9375 84.8591 38.9375 84.6544C38.9375 84.4498 39.007 84.2778 39.1462 84.1387C39.2854 83.9995 39.4573 83.9299 39.662 83.9299C39.8667 83.9299 40.0386 83.9995 40.1778 84.1387C40.317 84.2778 40.3866 84.4498 40.3866 84.6544C40.3866 84.8591 40.317 85.0311 40.1778 85.1702C40.0386 85.3094 39.8667 85.379 39.662 85.379C39.4573 85.379 39.2854 85.3094 39.1462 85.1702ZM44.8433 84.9369V83.6597C45.5065 84.0036 46.1082 84.1755 46.6486 84.1755C47.0825 84.1755 47.4223 84.0568 47.6679 83.8194C47.9135 83.5737 48.0363 83.2463 48.0363 82.8369C48.0363 81.9854 47.4427 81.5229 46.2556 81.4492V80.393C46.7878 80.393 47.2012 80.2743 47.496 80.0369C47.7989 79.7913 47.9503 79.4679 47.9503 79.0667C47.9503 78.7065 47.8112 78.4118 47.5328 78.1825C47.2544 77.9533 46.8819 77.8387 46.4153 77.8387C46.0796 77.8387 45.6088 77.9656 45.003 78.2194V77.1387C45.5679 76.8767 46.1082 76.7457 46.624 76.7457C47.3854 76.7457 47.9913 76.9504 48.4416 77.3597C48.9 77.7691 49.1293 78.3012 49.1293 78.9562C49.1293 79.7504 48.7936 80.3644 48.1223 80.7983C48.9164 81.1831 49.3135 81.8504 49.3135 82.8001C49.3135 83.5778 49.0638 84.2123 48.5644 84.7036C48.0731 85.1866 47.4223 85.4281 46.6117 85.4281C46.0468 85.4281 45.4574 85.2644 44.8433 84.9369ZM50.4419 79.2632C50.4419 78.5591 50.6834 77.9656 51.1664 77.4825C51.6495 76.9995 52.239 76.758 52.9349 76.758C53.6308 76.758 54.2202 77.0036 54.7033 77.4948C55.1945 77.9778 55.4401 78.5673 55.4401 79.2632C55.4401 79.9591 55.1945 80.5486 54.7033 81.0316C54.2202 81.5147 53.6308 81.7562 52.9349 81.7562C52.239 81.7562 51.6495 81.5147 51.1664 81.0316C50.6834 80.5486 50.4419 79.9591 50.4419 79.2632ZM51.9401 78.2562C51.67 78.5264 51.5349 78.858 51.5349 79.2509C51.5349 79.6439 51.67 79.9796 51.9401 80.258C52.2103 80.5281 52.5419 80.6632 52.9349 80.6632C53.3197 80.6632 53.6471 80.5281 53.9173 80.258C54.1957 79.9796 54.3349 79.6439 54.3349 79.2509C54.3349 78.858 54.1957 78.5264 53.9173 78.2562C53.6471 77.986 53.3197 77.8509 52.9349 77.8509C52.5419 77.8509 52.2103 77.986 51.9401 78.2562ZM52.6524 85.4281L58.3138 76.7457H59.3208L53.6349 85.4281H52.6524ZM57.2454 84.7036C56.7623 84.2205 56.5208 83.6311 56.5208 82.9351C56.5208 82.2392 56.7623 81.6498 57.2454 81.1667C57.7366 80.6755 58.3302 80.4299 59.0261 80.4299C59.722 80.4299 60.3115 80.6755 60.7945 81.1667C61.2776 81.6498 61.5191 82.2392 61.5191 82.9351C61.5191 83.6311 61.2776 84.2205 60.7945 84.7036C60.3115 85.1866 59.722 85.4281 59.0261 85.4281C58.3302 85.4281 57.7366 85.1866 57.2454 84.7036ZM58.0191 81.9404C57.7489 82.2106 57.6138 82.5422 57.6138 82.9351C57.6138 83.3281 57.7489 83.6597 58.0191 83.9299C58.2974 84.2001 58.6331 84.3351 59.0261 84.3351C59.4109 84.3351 59.7384 84.2001 60.0085 83.9299C60.2869 83.6597 60.4261 83.3281 60.4261 82.9351C60.4261 82.5422 60.2869 82.2106 60.0085 81.9404C59.7384 81.662 59.4109 81.5229 59.0261 81.5229C58.6331 81.5229 58.2974 81.662 58.0191 81.9404ZM72.7429 81.1667V84.7158C71.6458 85.1907 70.6511 85.4281 69.7587 85.4281C68.7435 85.4281 67.8633 85.1825 67.1183 84.6913C66.4879 84.2819 66.0008 83.762 65.6569 83.1316C65.313 82.493 65.1411 81.8012 65.1411 81.0562C65.1411 80.4913 65.2557 79.9468 65.485 79.4229C65.7142 78.8907 66.0376 78.424 66.4551 78.0229C67.3312 77.1796 68.4528 76.758 69.8201 76.758C70.7452 76.758 71.6949 76.9831 72.6692 77.4334V78.7351C71.6294 78.1702 70.6756 77.8878 69.8078 77.8878C68.8171 77.8878 68.0025 78.1948 67.3639 78.8088C66.7335 79.4229 66.4183 80.1843 66.4183 81.093C66.4183 81.9936 66.7335 82.7509 67.3639 83.365C67.9943 83.979 68.7885 84.286 69.7464 84.286C70.3113 84.286 70.8967 84.1591 71.5025 83.9053V82.2843H69.9306V81.1667H72.7429ZM73.7254 84.6299V83.0457C74.4459 83.8644 75.1786 84.2737 75.9237 84.2737C76.3412 84.2737 76.6687 84.1796 76.9061 83.9913C77.1436 83.7948 77.2623 83.5287 77.2623 83.193C77.2623 82.8737 77.1599 82.6118 76.9552 82.4071C76.7506 82.1942 76.3862 81.9199 75.8623 81.5843C75.0436 81.0603 74.4786 80.6346 74.1675 80.3071C73.8646 79.9714 73.7131 79.5252 73.7131 78.9685C73.7131 78.3217 73.9424 77.7895 74.4009 77.372C74.8593 76.9463 75.457 76.7334 76.1938 76.7334C76.8324 76.7334 77.4669 76.9258 78.0974 77.3106V78.6737C77.3933 78.1088 76.7424 77.8264 76.1447 77.8264C75.7599 77.8264 75.4488 77.9205 75.2114 78.1088C74.9821 78.2971 74.8675 78.5346 74.8675 78.8211C74.8675 79.1077 74.9781 79.3533 75.1991 79.558C75.4202 79.7626 75.8009 80.0328 76.3412 80.3685C76.4231 80.4176 76.4845 80.4544 76.5254 80.479C77.2295 80.9129 77.7289 81.3141 78.0237 81.6825C78.3266 82.0509 78.4781 82.5626 78.4781 83.2176C78.4781 83.8562 78.2488 84.3843 77.7903 84.8018C77.3319 85.2194 76.7342 85.4281 75.9974 85.4281C75.1295 85.4281 74.3722 85.162 73.7254 84.6299ZM81.9527 85.2808V77.986H78.8703V76.893H86.2264V77.986H83.144V85.2808H81.9527Z" fill="#151515"/>
<g clip-path="url(#clip2_274_32432)">
<path d="M111.084 111.152C107.875 111.202 105.301 113.015 105.335 115.201C105.369 117.388 107.998 119.12 111.208 119.07C114.417 119.02 116.992 117.207 116.957 115.02C116.924 112.833 114.294 111.101 111.084 111.152Z" fill="url(#paint1_linear_274_32432)"/>
<path d="M105.349 116.073L105.335 115.201C105.369 117.388 107.998 119.12 111.208 119.07C114.418 119.02 116.992 117.207 116.958 115.02L116.972 115.892C117.006 118.078 114.432 119.891 111.222 119.942C108.013 119.992 105.383 118.259 105.349 116.073Z" fill="url(#paint2_linear_274_32432)"/>
<path d="M111.089 111.402C108.2 111.447 105.883 113.079 105.914 115.047C105.945 117.015 108.312 118.574 111.2 118.529C114.088 118.484 116.405 116.852 116.374 114.884C116.344 112.915 113.977 111.357 111.089 111.402Z" fill="url(#paint3_linear_274_32432)"/>
<path d="M111.091 111.547C108.238 111.592 105.944 113.184 105.918 115.12C105.917 115.095 105.915 115.071 105.914 115.047C105.883 113.079 108.2 111.447 111.089 111.402C113.977 111.357 116.344 112.915 116.374 114.883C116.375 114.908 116.373 114.932 116.373 114.956C116.286 113.023 113.943 111.503 111.091 111.547Z" fill="#A86314"/>
<path d="M155.94 99.9884C153.458 102.024 152.569 105.044 153.956 106.736C155.343 108.427 158.479 108.148 160.961 106.112C163.443 104.076 164.332 101.056 162.945 99.3648C161.559 97.6738 158.422 97.9533 155.94 99.9884Z" fill="url(#paint4_linear_274_32432)"/>
<path d="M154.509 107.41L153.956 106.736C155.343 108.427 158.479 108.147 160.961 106.112C163.443 104.076 164.332 101.056 162.945 99.3648L163.498 100.039C164.884 101.73 163.996 104.751 161.514 106.786C159.032 108.822 155.895 109.101 154.509 107.41Z" fill="url(#paint5_linear_274_32432)"/>
<path d="M156.099 100.182C153.865 102.014 153.066 104.733 154.314 106.255C155.562 107.777 158.384 107.525 160.618 105.694C162.852 103.862 163.652 101.143 162.404 99.6213C161.156 98.0993 158.333 98.3502 156.099 100.182Z" fill="url(#paint6_linear_274_32432)"/>
<path d="M156.191 100.295C153.985 102.104 153.179 104.777 154.361 106.309C154.345 106.291 154.329 106.274 154.313 106.255C153.065 104.733 153.865 102.014 156.099 100.182C158.333 98.3503 161.155 98.0993 162.403 99.6209C162.419 99.6397 162.432 99.6595 162.447 99.6789C161.177 98.2195 158.397 98.4857 156.191 100.295Z" fill="#A86314"/>
<path d="M107.938 97.1834C106.739 94.2056 105.224 92.0103 104.554 92.2801C103.884 92.55 104.313 95.1824 105.512 98.1601C106.711 101.138 108.226 103.333 108.896 103.063C109.566 102.794 109.137 100.161 107.938 97.1834Z" fill="url(#paint7_linear_274_32432)"/>
<path d="M107.884 97.205C106.805 94.5252 105.442 92.5496 104.839 92.7923C104.236 93.0349 104.622 95.4044 105.701 98.0842C106.78 100.764 108.143 102.74 108.746 102.497C109.349 102.254 108.963 99.8848 107.884 97.205Z" fill="url(#paint8_linear_274_32432)"/>
<path d="M107.816 97.2322C106.758 94.6026 105.425 92.6522 104.806 92.8097C104.817 92.8038 104.827 92.7969 104.838 92.7922C105.441 92.5495 106.805 94.5252 107.884 97.205C108.963 99.8848 109.349 102.254 108.746 102.497C108.735 102.502 108.722 102.504 108.711 102.507C109.266 102.191 108.875 99.8618 107.816 97.2322Z" fill="#A86314"/>
<path d="M103.88 92.5514L104.554 92.2801C103.884 92.55 104.312 95.1824 105.512 98.1601C106.71 101.138 108.225 103.333 108.896 103.063L108.221 103.335C107.551 103.604 106.036 101.409 104.837 98.4314C103.639 95.4541 103.21 92.8213 103.88 92.5514Z" fill="url(#paint9_linear_274_32432)"/>
<path d="M138.502 113.899C135.367 114.588 132.952 115.719 133.107 116.425C133.262 117.13 135.929 117.143 139.064 116.453C142.199 115.763 144.615 114.632 144.459 113.927C144.304 113.221 141.637 113.209 138.502 113.899Z" fill="url(#paint10_linear_274_32432)"/>
<path d="M138.514 113.955C135.693 114.576 133.519 115.594 133.658 116.229C133.798 116.863 136.199 116.875 139.02 116.254C141.842 115.633 144.016 114.615 143.876 113.981C143.736 113.346 141.335 113.334 138.514 113.955Z" fill="url(#paint11_linear_274_32432)"/>
<path d="M138.53 114.026C135.761 114.635 133.618 115.627 133.67 116.263C133.666 116.252 133.661 116.241 133.658 116.229C133.519 115.594 135.693 114.576 138.514 113.955C141.336 113.334 143.736 113.346 143.876 113.981C143.879 113.993 143.879 114.005 143.88 114.017C143.66 113.417 141.299 113.417 138.53 114.026Z" fill="#A86314"/>
<path d="M133.263 117.134L133.106 116.425C133.262 117.13 135.929 117.142 139.064 116.453C142.199 115.763 144.614 114.632 144.459 113.926L144.615 114.636C144.77 115.341 142.355 116.472 139.22 117.162C136.085 117.852 133.418 117.84 133.263 117.134Z" fill="url(#paint12_linear_274_32432)"/>
<path d="M119.819 88.489C121.535 85.776 121.075 82.4059 118.791 80.9617C116.508 79.5175 113.266 80.5458 111.55 83.2588C109.834 85.9718 110.294 89.3419 112.577 90.7861C114.861 92.2303 118.103 91.2015 119.819 88.489Z" fill="url(#paint13_linear_274_32432)"/>
<path d="M119.405 88.2275C120.949 85.7858 120.535 82.7527 118.48 81.4531C116.426 80.1531 113.508 81.0787 111.963 83.5204C110.419 85.9621 110.832 88.9952 112.888 90.2948C114.943 91.5944 117.861 90.6687 119.405 88.2275Z" fill="url(#paint14_linear_274_32432)"/>
<path d="M118.054 80.4957L118.791 80.9617C116.508 79.5175 113.266 80.5459 111.55 83.2588C109.834 85.9718 110.294 89.3419 112.577 90.7861L111.841 90.3201C109.557 88.8759 109.097 85.5057 110.813 82.7928C112.529 80.0798 115.771 79.0515 118.054 80.4957Z" fill="url(#paint15_linear_274_32432)"/>
<path d="M119.283 88.1496C120.812 85.7323 120.42 82.737 118.418 81.4157C118.439 81.4282 118.46 81.4397 118.481 81.4526C120.536 82.7522 120.95 85.7852 119.406 88.2269C117.861 90.6686 114.944 91.5943 112.888 90.2942C112.868 90.2813 112.848 90.2671 112.828 90.2537C114.879 91.4967 117.754 90.5669 119.283 88.1496Z" fill="#7E470D"/>
<path d="M126.923 108.829C123.772 109.441 121.105 109.362 120.968 108.654C120.83 107.944 123.273 106.874 126.424 106.262C129.575 105.65 132.241 105.728 132.379 106.437C132.517 107.146 130.074 108.217 126.923 108.829Z" fill="url(#paint16_linear_274_32432)"/>
<path d="M126.912 108.772C124.076 109.323 121.676 109.252 121.552 108.614C121.428 107.976 123.627 107.012 126.463 106.461C129.299 105.911 131.698 105.982 131.822 106.619C131.946 107.257 129.748 108.221 126.912 108.772Z" fill="url(#paint17_linear_274_32432)"/>
<path d="M126.898 108.701C124.115 109.241 121.754 109.183 121.549 108.577C121.549 108.59 121.549 108.602 121.552 108.614C121.676 109.252 124.075 109.322 126.911 108.772C129.747 108.221 131.946 107.257 131.822 106.619C131.82 106.607 131.815 106.596 131.811 106.584C131.848 107.222 129.68 108.16 126.898 108.701Z" fill="#7E470D"/>
<path d="M120.829 107.94L120.968 108.654C120.83 107.944 123.273 106.874 126.424 106.262C129.575 105.65 132.241 105.728 132.379 106.437L132.241 105.724C132.103 105.015 129.437 104.936 126.285 105.548C123.135 106.16 120.691 107.231 120.829 107.94Z" fill="url(#paint18_linear_274_32432)"/>
<path d="M148.572 104.847C145.826 103.184 144.736 99.963 146.135 97.6521C147.535 95.3412 150.895 94.8157 153.641 96.4787C156.386 98.1417 157.477 101.363 156.078 103.674C154.678 105.985 151.318 106.51 148.572 104.847Z" fill="url(#paint19_linear_274_32432)"/>
<path d="M148.826 104.429C146.355 102.932 145.373 100.033 146.632 97.9528C147.892 95.8731 150.917 95.4001 153.387 96.8968C155.859 98.3935 156.84 101.293 155.581 103.373C154.321 105.452 151.297 105.925 148.826 104.429Z" fill="url(#paint20_linear_274_32432)"/>
<path d="M146.587 96.906L146.135 97.6516C147.535 95.3407 150.895 94.8152 153.641 96.4782C156.386 98.1412 157.477 101.363 156.078 103.673L156.53 102.928C157.929 100.617 156.838 97.3956 154.093 95.7326C151.347 94.0701 147.987 94.5951 146.587 96.906Z" fill="url(#paint21_linear_274_32432)"/>
<path d="M148.901 104.304C146.455 102.823 145.469 99.9667 146.672 97.892C146.659 97.9128 146.645 97.9321 146.632 97.9533C145.373 100.033 146.355 102.932 148.826 104.429C151.297 105.926 154.321 105.453 155.581 103.373C155.593 103.352 155.604 103.331 155.617 103.31C154.335 105.337 151.347 105.786 148.901 104.304Z" fill="#7E470D"/>
<path d="M162.823 136.293C166.092 138.003 169.688 137.584 170.853 135.357C172.018 133.13 170.312 129.937 167.043 128.227C163.773 126.517 160.177 126.936 159.012 129.163C157.847 131.39 159.553 134.583 162.823 136.293Z" fill="url(#paint22_linear_274_32432)"/>
<path d="M171.318 134.469L170.853 135.357C172.018 133.13 170.312 129.937 167.043 128.227C163.773 126.517 160.177 126.936 159.012 129.163L159.477 128.275C160.642 126.047 164.237 125.628 167.507 127.339C170.777 129.049 172.483 132.242 171.318 134.469Z" fill="url(#paint23_linear_274_32432)"/>
<path d="M162.956 136.038C165.899 137.577 169.135 137.2 170.183 135.196C171.232 133.191 169.697 130.318 166.754 128.778C163.811 127.239 160.576 127.616 159.527 129.62C158.478 131.625 160.014 134.498 162.956 136.038Z" fill="url(#paint24_linear_274_32432)"/>
<path d="M163.034 135.89C165.94 137.411 169.131 137.06 170.219 135.12C170.207 135.145 170.196 135.171 170.183 135.196C169.135 137.2 165.899 137.577 162.956 136.038C160.014 134.498 158.478 131.625 159.527 129.62C159.54 129.596 159.555 129.572 159.569 129.548C158.596 131.549 160.128 134.369 163.034 135.89Z" fill="#A86314"/>
<path d="M96.337 130.736C94.8062 134.094 94.1776 137.094 94.9333 137.439C95.6891 137.783 97.5422 135.341 99.073 131.983C100.604 128.625 101.232 125.624 100.477 125.28C99.7214 124.936 97.8683 127.378 96.337 130.736Z" fill="url(#paint25_linear_274_32432)"/>
<path d="M96.3978 130.764C95.0199 133.786 94.4544 136.486 95.1341 136.796C95.8139 137.106 97.4823 134.908 98.8598 131.886C100.238 128.864 100.803 126.163 100.123 125.853C99.4437 125.543 97.7757 127.742 96.3978 130.764Z" fill="url(#paint26_linear_274_32432)"/>
<path d="M96.4738 130.798C95.1217 133.764 94.5525 136.418 95.1742 136.81C95.1608 136.806 95.147 136.802 95.1341 136.797C94.4544 136.487 95.0199 133.786 96.3978 130.764C97.7757 127.742 99.4437 125.544 100.123 125.854C100.136 125.86 100.148 125.868 100.159 125.875C99.4566 125.663 97.8259 127.833 96.4738 130.798Z" fill="#A86314"/>
<path d="M95.6932 137.786L94.9333 137.439C95.6886 137.784 97.5422 135.341 99.073 131.983C100.604 128.626 101.232 125.625 100.477 125.28L101.237 125.627C101.992 125.971 101.364 128.973 99.8329 132.33C98.3021 135.687 96.4485 138.13 95.6932 137.786Z" fill="url(#paint27_linear_274_32432)"/>
<path d="M144.447 138.03C141.399 135.95 138.549 134.819 138.08 135.505C137.613 136.191 139.704 138.433 142.752 140.513C145.799 142.593 148.65 143.724 149.118 143.038C149.586 142.353 147.495 140.11 144.447 138.03Z" fill="url(#paint28_linear_274_32432)"/>
<path d="M144.409 138.085C141.667 136.213 139.101 135.195 138.68 135.812C138.259 136.429 140.141 138.447 142.884 140.32C145.627 142.192 148.192 143.21 148.614 142.592C149.035 141.975 147.152 139.957 144.409 138.085Z" fill="url(#paint29_linear_274_32432)"/>
<path d="M144.362 138.154C141.67 136.317 139.152 135.304 138.66 135.849C138.666 135.837 138.671 135.824 138.68 135.812C139.101 135.195 141.666 136.212 144.409 138.085C147.152 139.957 149.034 141.975 148.613 142.592C148.605 142.604 148.595 142.614 148.586 142.624C148.915 141.968 147.054 139.991 144.362 138.154Z" fill="#A86314"/>
<path d="M137.61 136.195L138.08 135.505C137.613 136.191 139.704 138.433 142.752 140.513C145.799 142.593 148.65 143.724 149.118 143.038L148.647 143.728C148.179 144.414 145.329 143.283 142.281 141.203C139.233 139.123 137.142 136.881 137.61 136.195Z" fill="url(#paint30_linear_274_32432)"/>
<path d="M161.705 137.367C160.371 140.808 159.917 143.84 160.691 144.14C161.466 144.44 163.175 141.894 164.508 138.454C165.842 135.013 166.296 131.981 165.522 131.681C164.748 131.381 163.039 133.926 161.705 137.367Z" fill="url(#paint31_linear_274_32432)"/>
<path d="M110.138 110.326C106.484 110.843 103.875 113.756 104.311 116.831C104.746 119.906 108.061 121.979 111.714 121.462C115.368 120.945 117.977 118.033 117.541 114.958C117.106 111.883 113.791 109.809 110.138 110.326Z" fill="url(#paint32_linear_274_32432)"/>
<path d="M110.216 110.883C106.928 111.348 104.58 113.969 104.972 116.737C105.364 119.505 108.347 121.371 111.635 120.905C114.923 120.44 117.272 117.819 116.88 115.051C116.488 112.284 113.505 110.417 110.216 110.883Z" fill="url(#paint33_linear_274_32432)"/>
<path d="M104.451 117.823L104.311 116.831C104.746 119.906 108.061 121.979 111.714 121.462C115.368 120.945 117.977 118.033 117.541 114.958L117.682 115.95C118.117 119.025 115.508 121.937 111.855 122.455C108.201 122.972 104.886 120.898 104.451 117.823Z" fill="url(#paint34_linear_274_32432)"/>
<path d="M110.24 111.048C106.984 111.509 104.652 114.083 104.986 116.82C104.982 116.792 104.976 116.765 104.972 116.737C104.58 113.969 106.928 111.349 110.216 110.883C113.505 110.417 116.488 112.283 116.88 115.051C116.884 115.079 116.886 115.106 116.889 115.134C116.45 112.412 113.495 110.588 110.24 111.048Z" fill="#7E470D"/>
<path d="M153.653 130.453C150.217 131.799 147.186 132.263 146.883 131.49C146.58 130.717 149.12 128.999 152.556 127.653C155.992 126.307 159.023 125.842 159.325 126.615C159.628 127.388 157.088 129.106 153.653 130.453Z" fill="url(#paint35_linear_274_32432)"/>
<path d="M153.628 130.39C150.536 131.602 147.808 132.02 147.536 131.324C147.263 130.628 149.549 129.082 152.641 127.871C155.733 126.659 158.462 126.241 158.734 126.937C159.006 127.633 156.72 129.179 153.628 130.39Z" fill="url(#paint36_linear_274_32432)"/>
<path d="M153.598 130.313C150.563 131.502 147.882 131.925 147.525 131.284C147.528 131.298 147.53 131.311 147.536 131.324C147.809 132.02 150.536 131.602 153.628 130.39C156.72 129.179 159.006 127.633 158.734 126.937C158.729 126.924 158.721 126.912 158.714 126.9C158.888 127.613 156.632 129.123 153.598 130.313Z" fill="#A86314"/>
<path d="M146.579 130.713L146.883 131.491C146.58 130.717 149.12 129 152.556 127.653C155.992 126.307 159.023 125.843 159.325 126.616L159.021 125.838C158.718 125.065 155.687 125.53 152.251 126.876C148.815 128.221 146.276 129.94 146.579 130.713Z" fill="url(#paint37_linear_274_32432)"/>
<path d="M136.637 137.792C136.272 141.464 133.948 144.239 131.447 143.991C128.945 143.742 127.213 140.564 127.578 136.892C127.942 133.219 130.266 130.444 132.768 130.693C135.269 130.942 137.001 134.12 136.637 137.792Z" fill="url(#paint38_linear_274_32432)"/>
<path d="M130.449 143.891L131.447 143.99C128.945 143.741 127.213 140.563 127.578 136.891C127.942 133.219 130.266 130.444 132.768 130.692L131.77 130.593C129.269 130.345 126.945 133.12 126.58 136.792C126.215 140.464 127.948 143.642 130.449 143.891Z" fill="url(#paint39_linear_274_32432)"/>
<path d="M136.35 137.764C136.021 141.068 133.93 143.566 131.679 143.342C129.427 143.119 127.868 140.258 128.197 136.954C128.525 133.649 130.616 131.151 132.868 131.375C135.12 131.598 136.678 134.459 136.35 137.764Z" fill="url(#paint40_linear_274_32432)"/>
<path d="M136.184 137.747C135.859 141.011 133.815 143.486 131.596 143.331C131.623 143.335 131.651 143.34 131.679 143.342C133.93 143.566 136.021 141.068 136.35 137.764C136.678 134.459 135.119 131.599 132.868 131.375C132.84 131.372 132.812 131.371 132.784 131.37C134.991 131.654 136.508 134.483 136.184 137.747Z" fill="#A86314"/>
<path d="M126.534 138.314C126.739 141.999 126.234 145.023 125.405 145.069C124.576 145.115 123.737 142.166 123.532 138.482C123.326 134.798 123.831 131.773 124.66 131.727C125.49 131.68 126.328 134.63 126.534 138.314Z" fill="url(#paint41_linear_274_32432)"/>
<path d="M126.467 138.318C126.652 141.634 126.197 144.356 125.451 144.397C124.705 144.439 123.95 141.785 123.765 138.469C123.58 135.153 124.035 132.431 124.781 132.389C125.527 132.348 126.282 135.002 126.467 138.318Z" fill="url(#paint42_linear_274_32432)"/>
<path d="M126.384 138.323C126.565 141.576 126.13 144.256 125.409 144.395C125.423 144.396 125.437 144.398 125.451 144.397C126.197 144.356 126.652 141.634 126.467 138.318C126.282 135.002 125.527 132.348 124.781 132.389C124.767 132.39 124.753 132.394 124.739 132.396C125.472 132.454 126.202 135.069 126.384 138.323Z" fill="#7E470D"/>
<path d="M124.571 145.116L125.405 145.069C124.576 145.115 123.737 142.166 123.532 138.482C123.326 134.798 123.831 131.773 124.66 131.727L123.826 131.773C122.997 131.819 122.492 134.844 122.698 138.528C122.903 142.213 123.742 145.162 124.571 145.116Z" fill="url(#paint43_linear_274_32432)"/>
<path d="M130.071 122.393C131.194 118.878 134.502 116.794 137.461 117.739C140.42 118.684 141.908 122.3 140.785 125.815C139.662 129.33 136.354 131.414 133.395 130.469C130.436 129.524 128.948 125.908 130.071 122.393Z" fill="url(#paint44_linear_274_32432)"/>
<path d="M130.607 122.564C131.617 119.401 134.595 117.526 137.258 118.376C139.92 119.226 141.26 122.48 140.249 125.644C139.239 128.808 136.261 130.683 133.598 129.832C130.935 128.982 129.596 125.728 130.607 122.564Z" fill="url(#paint45_linear_274_32432)"/>
<path d="M138.416 118.044L137.461 117.739C140.42 118.684 141.908 122.3 140.785 125.815C139.662 129.33 136.354 131.414 133.395 130.469L134.35 130.774C137.308 131.719 140.617 129.635 141.74 126.12C142.863 122.605 141.374 118.989 138.416 118.044Z" fill="url(#paint46_linear_274_32432)"/>
<path d="M130.766 122.615C131.766 119.483 134.695 117.615 137.337 118.403C137.31 118.394 137.285 118.384 137.258 118.376C134.595 117.525 131.617 119.4 130.607 122.564C129.597 125.728 130.936 128.982 133.599 129.832C133.625 129.841 133.652 129.848 133.679 129.855C131.069 128.966 129.765 125.747 130.766 122.615Z" fill="#7E470D"/>
<path d="M146.227 144.312C150.202 142.242 152.281 138.369 150.871 135.661C149.461 132.953 145.096 132.436 141.121 134.506C137.146 136.575 135.067 140.448 136.477 143.156C137.887 145.864 142.252 146.381 146.227 144.312Z" fill="url(#paint47_linear_274_32432)"/>
<path d="M150.309 134.582L150.872 135.661C149.461 132.953 145.096 132.436 141.121 134.506C137.146 136.575 135.067 140.448 136.477 143.156L135.915 142.077C134.505 139.369 136.584 135.496 140.559 133.426C144.534 131.356 148.899 131.874 150.309 134.582Z" fill="url(#paint48_linear_274_32432)"/>
<path d="M146.065 144.001C149.643 142.139 151.514 138.653 150.245 136.216C148.976 133.779 145.048 133.313 141.47 135.176C137.893 137.039 136.021 140.524 137.29 142.961C138.559 145.399 142.488 145.864 146.065 144.001Z" fill="url(#paint49_linear_274_32432)"/>
<path d="M145.972 143.821C149.505 141.981 151.372 138.56 150.195 136.127C150.212 136.157 150.23 136.185 150.245 136.216C151.514 138.653 149.643 142.139 146.065 144.001C142.488 145.864 138.559 145.399 137.29 142.961C137.274 142.931 137.261 142.9 137.247 142.87C138.565 145.228 142.439 145.661 145.972 143.821Z" fill="#A86314"/>
<path d="M104.816 150.089C101.459 153.058 97.0982 153.611 95.0761 151.324C93.0534 149.037 94.1352 144.776 97.4925 141.807C100.849 138.838 105.21 138.286 107.233 140.573C109.255 142.86 108.173 147.12 104.816 150.089Z" fill="url(#paint50_linear_274_32432)"/>
<path d="M94.2697 150.412L95.0761 151.324C93.0534 149.037 94.1352 144.776 97.4924 141.808C100.849 138.839 105.21 138.286 107.233 140.573L106.427 139.661C104.404 137.374 100.043 137.927 96.6856 140.895C93.3288 143.864 92.247 148.125 94.2697 150.412Z" fill="url(#paint51_linear_274_32432)"/>
<path d="M104.585 149.827C101.563 152.499 97.6384 152.996 95.8184 150.938C93.9979 148.88 94.9715 145.045 97.993 142.373C101.014 139.701 104.939 139.204 106.759 141.262C108.579 143.32 107.606 147.155 104.585 149.827Z" fill="url(#paint52_linear_274_32432)"/>
<path d="M144.475 141.725C142.623 137.644 141.867 133.998 142.785 133.581C143.703 133.165 145.949 136.136 147.8 140.217C149.651 144.298 150.408 147.944 149.49 148.36C148.572 148.777 146.327 145.806 144.475 141.725Z" fill="url(#paint53_linear_274_32432)"/>
<path d="M144.549 141.691C142.882 138.019 142.201 134.737 143.028 134.362C143.855 133.987 145.875 136.661 147.542 140.334C149.208 144.006 149.889 147.288 149.063 147.663C148.236 148.038 146.215 145.364 144.549 141.691Z" fill="url(#paint54_linear_274_32432)"/>
<path d="M144.641 141.65C143.006 138.045 142.321 134.82 143.076 134.346C143.06 134.352 143.043 134.355 143.028 134.362C142.201 134.737 142.882 138.019 144.549 141.691C146.215 145.364 148.236 148.038 149.062 147.663C149.078 147.656 149.092 147.646 149.106 147.637C148.252 147.893 146.276 145.254 144.641 141.65Z" fill="#A86314"/>
<path d="M143.709 133.162L142.785 133.581C143.703 133.164 145.949 136.135 147.8 140.216C149.651 144.297 150.408 147.943 149.49 148.36L150.413 147.941C151.332 147.524 150.575 143.878 148.723 139.797C146.872 135.716 144.627 132.746 143.709 133.162Z" fill="url(#paint55_linear_274_32432)"/>
<path d="M152.371 111.351C148.986 108.414 144.238 108.342 141.766 111.191C139.294 114.04 140.034 118.73 143.418 121.668C146.802 124.605 151.55 124.677 154.022 121.828C156.495 118.979 155.755 114.289 152.371 111.351Z" fill="url(#paint56_linear_274_32432)"/>
<path d="M151.923 111.867C148.877 109.224 144.604 109.159 142.379 111.723C140.154 114.286 140.819 118.508 143.865 121.151C146.911 123.795 151.184 123.86 153.41 121.296C155.634 118.732 154.969 114.511 151.923 111.867Z" fill="url(#paint57_linear_274_32432)"/>
<path d="M140.968 112.11L141.766 111.191C139.293 114.039 140.033 118.73 143.417 121.667C146.802 124.604 151.55 124.676 154.022 121.827L153.224 122.747C150.752 125.595 146.004 125.524 142.62 122.586C139.235 119.649 138.496 114.959 140.968 112.11Z" fill="url(#paint58_linear_274_32432)"/>
<path d="M151.79 112.02C148.774 109.403 144.557 109.315 142.314 111.801C142.336 111.775 142.356 111.748 142.378 111.722C144.604 109.158 148.877 109.223 151.923 111.867C154.969 114.51 155.635 118.732 153.409 121.296C153.387 121.321 153.363 121.345 153.341 121.37C155.486 118.799 154.805 114.637 151.79 112.02Z" fill="#7E470D"/>
<path d="M136.009 140.027C132.929 136.772 128.634 135.834 126.417 137.932C124.199 140.031 124.899 144.371 127.979 147.626C131.059 150.881 135.354 151.818 137.571 149.72C139.789 147.622 139.089 143.282 136.009 140.027Z" fill="url(#paint59_linear_274_32432)"/>
<path d="M125.532 138.769L126.417 137.932C124.199 140.031 124.899 144.37 127.979 147.625C131.059 150.88 135.354 151.818 137.571 149.719L136.687 150.556C134.469 152.655 130.175 151.717 127.095 148.462C124.015 145.207 123.315 140.867 125.532 138.769Z" fill="url(#paint60_linear_274_32432)"/>
<path d="M135.755 140.267C132.982 137.337 129.117 136.493 127.122 138.382C125.126 140.271 125.755 144.176 128.528 147.106C131.3 150.035 135.165 150.879 137.161 148.991C139.156 147.102 138.527 143.197 135.755 140.267Z" fill="url(#paint61_linear_274_32432)"/>
<path d="M135.607 140.406C132.87 137.513 129.067 136.656 127.05 138.455C127.074 138.431 127.097 138.406 127.121 138.382C129.117 136.494 132.982 137.337 135.754 140.267C138.527 143.197 139.156 147.102 137.16 148.992C137.135 149.015 137.109 149.036 137.084 149.058C138.991 147.144 138.345 143.3 135.607 140.406Z" fill="#A86314"/>
</g>
</g>
</g>
<defs>
<filter id="filter0_d_274_32432" x="0" y="0" width="170" height="149.825" filterUnits="userSpaceOnUse" color-interpolation-filters="sRGB">
<feFlood flood-opacity="0" result="BackgroundImageFix"/>
<feColorMatrix in="SourceAlpha" type="matrix" values="0 0 0 0 0 0 0 0 0 0 0 0 0 0 0 0 0 0 127 0" result="hardAlpha"/>
<feOffset/>
<feGaussianBlur stdDeviation="5"/>
<feComposite in2="hardAlpha" operator="out"/>
<feColorMatrix type="matrix" values="0 0 0 0 0 0 0 0 0 0 0 0 0 0 0 0 0 0 0.25 0"/>
<feBlend mode="normal" in2="BackgroundImageFix" result="effect1_dropShadow_274_32432"/>
<feBlend mode="normal" in="SourceGraphic" in2="effect1_dropShadow_274_32432" result="shape"/>
</filter>
<linearGradient id="paint0_linear_274_32432" x1="17.8947" y1="15.7018" x2="160" y2="148.158" gradientUnits="userSpaceOnUse">
<stop stop-color="#E9A83D"/>
<stop offset="1" stop-color="#FFFFA6"/>
</linearGradient>
<linearGradient id="paint1_linear_274_32432" x1="111.21" y1="119.185" x2="111.075" y2="110.507" gradientUnits="userSpaceOnUse">
<stop stop-color="#FFEE7A"/>
<stop offset="1" stop-color="#D3912F"/>
</linearGradient>
<linearGradient id="paint2_linear_274_32432" x1="104.791" y1="117.626" x2="115.459" y2="117.459" gradientUnits="userSpaceOnUse">
<stop stop-color="#FFBF4A"/>
<stop offset="0.1216" stop-color="#FFEE7A"/>
<stop offset="0.2011" stop-color="#FFFFE1"/>
<stop offset="0.2776" stop-color="#FFFFA6"/>
<stop offset="0.3693" stop-color="#FFCF5A"/>
<stop offset="0.4784" stop-color="#9A5A12"/>
<stop offset="0.6514" stop-color="#FFBF4A"/>
<stop offset="1" stop-color="#A86314"/>
</linearGradient>
<linearGradient id="paint3_linear_274_32432" x1="111.437" y1="129.474" x2="111.013" y2="108.506" gradientUnits="userSpaceOnUse">
<stop stop-color="#FFDF6A"/>
<stop offset="0.0459" stop-color="#FFDF6A"/>
<stop offset="1" stop-color="#BE7A22"/>
</linearGradient>
<linearGradient id="paint4_linear_274_32432" x1="161.034" y1="106.201" x2="155.531" y2="99.4899" gradientUnits="userSpaceOnUse">
<stop stop-color="#FFEE7A"/>
<stop offset="1" stop-color="#D3912F"/>
</linearGradient>
<linearGradient id="paint5_linear_274_32432" x1="155.038" y1="108.972" x2="163.289" y2="102.207" gradientUnits="userSpaceOnUse">
<stop stop-color="#FFBF4A"/>
<stop offset="0.1216" stop-color="#FFEE7A"/>
<stop offset="0.2011" stop-color="#FFFFE1"/>
<stop offset="0.2776" stop-color="#FFFFA6"/>
<stop offset="0.3693" stop-color="#FFCF5A"/>
<stop offset="0.4784" stop-color="#9A5A12"/>
<stop offset="0.6514" stop-color="#FFBF4A"/>
<stop offset="1" stop-color="#A86314"/>
</linearGradient>
<linearGradient id="paint6_linear_274_32432" x1="160.416" y1="105.447" x2="156.823" y2="101.065" gradientUnits="userSpaceOnUse">
<stop stop-color="#FFFFA6"/>
<stop offset="1" stop-color="#E9A83D"/>
</linearGradient>
<linearGradient id="paint7_linear_274_32432" x1="105.476" y1="98.1744" x2="108.135" y2="97.1038" gradientUnits="userSpaceOnUse">
<stop stop-color="#FFEE7A"/>
<stop offset="1" stop-color="#D3912F"/>
</linearGradient>
<linearGradient id="paint8_linear_274_32432" x1="100.895" y1="100.019" x2="109.355" y2="96.6128" gradientUnits="userSpaceOnUse">
<stop stop-color="#FFDF6A"/>
<stop offset="0.0459" stop-color="#FFDF6A"/>
<stop offset="1" stop-color="#BE7A22"/>
</linearGradient>
<linearGradient id="paint9_linear_274_32432" x1="103.498" y1="92.3814" x2="108.218" y2="104.102" gradientUnits="userSpaceOnUse">
<stop stop-color="#FFBF4A"/>
<stop offset="0.1216" stop-color="#FFEE7A"/>
<stop offset="0.2011" stop-color="#FFFFE1"/>
<stop offset="0.2776" stop-color="#FFFFA6"/>
<stop offset="0.3693" stop-color="#FFCF5A"/>
<stop offset="0.4784" stop-color="#9A5A12"/>
<stop offset="0.6514" stop-color="#FFBF4A"/>
<stop offset="1" stop-color="#A86314"/>
</linearGradient>
<linearGradient id="paint10_linear_274_32432" x1="139.072" y1="116.49" x2="138.456" y2="113.69" gradientUnits="userSpaceOnUse">
<stop stop-color="#FFEE7A"/>
<stop offset="1" stop-color="#D3912F"/>
</linearGradient>
<linearGradient id="paint11_linear_274_32432" x1="139.532" y1="117.914" x2="138.366" y2="113.632" gradientUnits="userSpaceOnUse">
<stop stop-color="#FFFFA6"/>
<stop offset="1" stop-color="#E9A83D"/>
</linearGradient>
<linearGradient id="paint12_linear_274_32432" x1="133.032" y1="117.482" x2="145.372" y2="114.767" gradientUnits="userSpaceOnUse">
<stop stop-color="#FFBF4A"/>
<stop offset="0.1216" stop-color="#FFEE7A"/>
<stop offset="0.2011" stop-color="#FFFFE1"/>
<stop offset="0.2776" stop-color="#FFFFA6"/>
<stop offset="0.3693" stop-color="#FFCF5A"/>
<stop offset="0.4784" stop-color="#9A5A12"/>
<stop offset="0.6514" stop-color="#FFBF4A"/>
<stop offset="1" stop-color="#A86314"/>
</linearGradient>
<linearGradient id="paint13_linear_274_32432" x1="117.506" y1="87.0261" x2="112.147" y2="83.6361" gradientUnits="userSpaceOnUse">
<stop stop-color="#BE7A22"/>
<stop offset="1" stop-color="#FFCF5A"/>
</linearGradient>
<linearGradient id="paint14_linear_274_32432" x1="108.255" y1="81.1742" x2="119.263" y2="88.1375" gradientUnits="userSpaceOnUse">
<stop stop-color="#E9A83D"/>
<stop offset="1" stop-color="#8C5110"/>
</linearGradient>
<linearGradient id="paint15_linear_274_32432" x1="116.507" y1="79.1828" x2="110.404" y2="88.8306" gradientUnits="userSpaceOnUse">
<stop stop-color="#BE7A22"/>
<stop offset="0.1216" stop-color="#E9A83D"/>
<stop offset="0.2191" stop-color="#FFFFE1"/>
<stop offset="0.2776" stop-color="#FFFFA6"/>
<stop offset="0.3693" stop-color="#FFCF5A"/>
<stop offset="0.3821" stop-color="#E6B248"/>
<stop offset="0.3992" stop-color="#CB9235"/>
<stop offset="0.4169" stop-color="#B57925"/>
<stop offset="0.4354" stop-color="#A6681B"/>
<stop offset="0.4552" stop-color="#9D5D14"/>
<stop offset="0.4784" stop-color="#9A5A12"/>
<stop offset="0.5355" stop-color="#9F5F15"/>
<stop offset="0.6015" stop-color="#AD6D1C"/>
<stop offset="0.672" stop-color="#C48429"/>
<stop offset="0.7451" stop-color="#E4A43B"/>
<stop offset="0.7956" stop-color="#FFBF4A"/>
<stop offset="1" stop-color="#8C5110"/>
</linearGradient>
<linearGradient id="paint16_linear_274_32432" x1="126.242" y1="105.718" x2="127.351" y2="110.412" gradientUnits="userSpaceOnUse">
<stop stop-color="#BE7A22"/>
<stop offset="1" stop-color="#FFCF5A"/>
</linearGradient>
<linearGradient id="paint17_linear_274_32432" x1="127.825" y1="113.476" x2="126.263" y2="105.434" gradientUnits="userSpaceOnUse">
<stop stop-color="#E9A83D"/>
<stop offset="1" stop-color="#8C5110"/>
</linearGradient>
<linearGradient id="paint18_linear_274_32432" x1="120.479" y1="107.713" x2="132.882" y2="105.303" gradientUnits="userSpaceOnUse">
<stop stop-color="#BE7A22"/>
<stop offset="0.1216" stop-color="#E9A83D"/>
<stop offset="0.2191" stop-color="#FFFFE1"/>
<stop offset="0.2776" stop-color="#FFFFA6"/>
<stop offset="0.3693" stop-color="#FFCF5A"/>
<stop offset="0.3821" stop-color="#E6B248"/>
<stop offset="0.3992" stop-color="#CB9235"/>
<stop offset="0.4169" stop-color="#B57925"/>
<stop offset="0.4354" stop-color="#A6681B"/>
<stop offset="0.4552" stop-color="#9D5D14"/>
<stop offset="0.4784" stop-color="#9A5A12"/>
<stop offset="0.5355" stop-color="#9F5F15"/>
<stop offset="0.6015" stop-color="#AD6D1C"/>
<stop offset="0.672" stop-color="#C48429"/>
<stop offset="0.7451" stop-color="#E4A43B"/>
<stop offset="0.7956" stop-color="#FFBF4A"/>
<stop offset="1" stop-color="#8C5110"/>
</linearGradient>
<linearGradient id="paint19_linear_274_32432" x1="149.99" y1="102.506" x2="153.275" y2="97.0827" gradientUnits="userSpaceOnUse">
<stop stop-color="#BE7A22"/>
<stop offset="1" stop-color="#FFCF5A"/>
</linearGradient>
<linearGradient id="paint20_linear_274_32432" x1="155.661" y1="93.1439" x2="148.913" y2="104.284" gradientUnits="userSpaceOnUse">
<stop stop-color="#E9A83D"/>
<stop offset="1" stop-color="#8C5110"/>
</linearGradient>
<linearGradient id="paint21_linear_274_32432" x1="147.387" y1="95.0405" x2="157.151" y2="100.955" gradientUnits="userSpaceOnUse">
<stop stop-color="#BE7A22"/>
<stop offset="0.1216" stop-color="#E9A83D"/>
<stop offset="0.2191" stop-color="#FFFFE1"/>
<stop offset="0.2776" stop-color="#FFFFA6"/>
<stop offset="0.3693" stop-color="#FFCF5A"/>
<stop offset="0.3821" stop-color="#E6B248"/>
<stop offset="0.3992" stop-color="#CB9235"/>
<stop offset="0.4169" stop-color="#B57925"/>
<stop offset="0.4354" stop-color="#A6681B"/>
<stop offset="0.4552" stop-color="#9D5D14"/>
<stop offset="0.4784" stop-color="#9A5A12"/>
<stop offset="0.5355" stop-color="#9F5F15"/>
<stop offset="0.6015" stop-color="#AD6D1C"/>
<stop offset="0.672" stop-color="#C48429"/>
<stop offset="0.7451" stop-color="#E4A43B"/>
<stop offset="0.7956" stop-color="#FFBF4A"/>
<stop offset="1" stop-color="#8C5110"/>
</linearGradient>
<linearGradient id="paint22_linear_274_32432" x1="167.104" y1="128.109" x2="162.479" y2="136.95" gradientUnits="userSpaceOnUse">
<stop stop-color="#FFEE7A"/>
<stop offset="1" stop-color="#D3912F"/>
</linearGradient>
<linearGradient id="paint23_linear_274_32432" x1="172.732" y1="133.207" x2="161.865" y2="127.521" gradientUnits="userSpaceOnUse">
<stop stop-color="#FFBF4A"/>
<stop offset="0.1216" stop-color="#FFEE7A"/>
<stop offset="0.2011" stop-color="#FFFFE1"/>
<stop offset="0.2776" stop-color="#FFFFA6"/>
<stop offset="0.3693" stop-color="#FFCF5A"/>
<stop offset="0.4784" stop-color="#9A5A12"/>
<stop offset="0.6514" stop-color="#FFBF4A"/>
<stop offset="1" stop-color="#A86314"/>
</linearGradient>
<linearGradient id="paint24_linear_274_32432" x1="166.585" y1="129.103" x2="163.565" y2="134.875" gradientUnits="userSpaceOnUse">
<stop stop-color="#FFFFA6"/>
<stop offset="1" stop-color="#E9A83D"/>
</linearGradient>
<linearGradient id="paint25_linear_274_32432" x1="99.1128" y1="132.001" x2="96.1145" y2="130.634" gradientUnits="userSpaceOnUse">
<stop stop-color="#FFEE7A"/>
<stop offset="1" stop-color="#D3912F"/>
</linearGradient>
<linearGradient id="paint26_linear_274_32432" x1="104.278" y1="134.357" x2="94.7395" y2="130.007" gradientUnits="userSpaceOnUse">
<stop stop-color="#FFDF6A"/>
<stop offset="0.0459" stop-color="#FFDF6A"/>
<stop offset="1" stop-color="#BE7A22"/>
</linearGradient>
<linearGradient id="paint27_linear_274_32432" x1="95.8534" y1="138.238" x2="101.88" y2="125.022" gradientUnits="userSpaceOnUse">
<stop stop-color="#FFBF4A"/>
<stop offset="0.1216" stop-color="#FFEE7A"/>
<stop offset="0.2011" stop-color="#FFFFE1"/>
<stop offset="0.2776" stop-color="#FFFFA6"/>
<stop offset="0.3693" stop-color="#FFCF5A"/>
<stop offset="0.4784" stop-color="#9A5A12"/>
<stop offset="0.6514" stop-color="#FFBF4A"/>
<stop offset="1" stop-color="#A86314"/>
</linearGradient>
<linearGradient id="paint28_linear_274_32432" x1="142.727" y1="140.55" x2="144.585" y2="137.828" gradientUnits="userSpaceOnUse">
<stop stop-color="#FFEE7A"/>
<stop offset="1" stop-color="#D3912F"/>
</linearGradient>
<linearGradient id="paint29_linear_274_32432" x1="141.898" y1="142.056" x2="144.563" y2="137.707" gradientUnits="userSpaceOnUse">
<stop stop-color="#FFFFA6"/>
<stop offset="1" stop-color="#E9A83D"/>
</linearGradient>
<linearGradient id="paint30_linear_274_32432" x1="137.136" y1="136.276" x2="149.134" y2="144.464" gradientUnits="userSpaceOnUse">
<stop stop-color="#FFBF4A"/>
<stop offset="0.1216" stop-color="#FFEE7A"/>
<stop offset="0.2011" stop-color="#FFFFE1"/>
<stop offset="0.2776" stop-color="#FFFFA6"/>
<stop offset="0.3693" stop-color="#FFCF5A"/>
<stop offset="0.4784" stop-color="#9A5A12"/>
<stop offset="0.6514" stop-color="#FFBF4A"/>
<stop offset="1" stop-color="#A86314"/>
</linearGradient>
<linearGradient id="paint31_linear_274_32432" x1="165.086" y1="138.771" x2="160.001" y2="136.56" gradientUnits="userSpaceOnUse">
<stop stop-color="#BE7A22"/>
<stop offset="1" stop-color="#FFCF5A"/>
</linearGradient>
<linearGradient id="paint32_linear_274_32432" x1="110.579" y1="113.441" x2="111.601" y2="120.659" gradientUnits="userSpaceOnUse">
<stop stop-color="#BE7A22"/>
<stop offset="1" stop-color="#FFCF5A"/>
</linearGradient>
<linearGradient id="paint33_linear_274_32432" x1="112.343" y1="125.9" x2="110.244" y2="111.075" gradientUnits="userSpaceOnUse">
<stop stop-color="#E9A83D"/>
<stop offset="1" stop-color="#8C5110"/>
</linearGradient>
<linearGradient id="paint34_linear_274_32432" x1="104.453" y1="120.157" x2="117.448" y2="118.317" gradientUnits="userSpaceOnUse">
<stop stop-color="#BE7A22"/>
<stop offset="0.1216" stop-color="#E9A83D"/>
<stop offset="0.2191" stop-color="#FFFFE1"/>
<stop offset="0.2776" stop-color="#FFFFA6"/>
<stop offset="0.3693" stop-color="#FFCF5A"/>
<stop offset="0.3821" stop-color="#E6B248"/>
<stop offset="0.3992" stop-color="#CB9235"/>
<stop offset="0.4169" stop-color="#B57925"/>
<stop offset="0.4354" stop-color="#A6681B"/>
<stop offset="0.4552" stop-color="#9D5D14"/>
<stop offset="0.4784" stop-color="#9A5A12"/>
<stop offset="0.5355" stop-color="#9F5F15"/>
<stop offset="0.6015" stop-color="#AD6D1C"/>
<stop offset="0.672" stop-color="#C48429"/>
<stop offset="0.7451" stop-color="#E4A43B"/>
<stop offset="0.7956" stop-color="#FFBF4A"/>
<stop offset="1" stop-color="#8C5110"/>
</linearGradient>
<linearGradient id="paint35_linear_274_32432" x1="152.54" y1="127.612" x2="153.742" y2="130.68" gradientUnits="userSpaceOnUse">
<stop stop-color="#FFEE7A"/>
<stop offset="1" stop-color="#D3912F"/>
</linearGradient>
<linearGradient id="paint36_linear_274_32432" x1="150.469" y1="122.326" x2="154.293" y2="132.087" gradientUnits="userSpaceOnUse">
<stop stop-color="#FFDF6A"/>
<stop offset="0.0459" stop-color="#FFDF6A"/>
<stop offset="1" stop-color="#BE7A22"/>
</linearGradient>
<linearGradient id="paint37_linear_274_32432" x1="146.135" y1="130.527" x2="159.659" y2="125.229" gradientUnits="userSpaceOnUse">
<stop stop-color="#FFBF4A"/>
<stop offset="0.1216" stop-color="#FFEE7A"/>
<stop offset="0.2011" stop-color="#FFFFE1"/>
<stop offset="0.2776" stop-color="#FFFFA6"/>
<stop offset="0.3693" stop-color="#FFCF5A"/>
<stop offset="0.4784" stop-color="#9A5A12"/>
<stop offset="0.6514" stop-color="#FFBF4A"/>
<stop offset="1" stop-color="#A86314"/>
</linearGradient>
<linearGradient id="paint38_linear_274_32432" x1="127.446" y1="136.878" x2="137.374" y2="137.865" gradientUnits="userSpaceOnUse">
<stop stop-color="#FFEE7A"/>
<stop offset="1" stop-color="#D3912F"/>
</linearGradient>
<linearGradient id="paint39_linear_274_32432" x1="128.617" y1="144.381" x2="129.83" y2="132.176" gradientUnits="userSpaceOnUse">
<stop stop-color="#FFBF4A"/>
<stop offset="0.1216" stop-color="#FFEE7A"/>
<stop offset="0.2011" stop-color="#FFFFE1"/>
<stop offset="0.2776" stop-color="#FFFFA6"/>
<stop offset="0.3693" stop-color="#FFCF5A"/>
<stop offset="0.4784" stop-color="#9A5A12"/>
<stop offset="0.6514" stop-color="#FFBF4A"/>
<stop offset="1" stop-color="#A86314"/>
</linearGradient>
<linearGradient id="paint40_linear_274_32432" x1="128.561" y1="136.989" x2="135.044" y2="137.634" gradientUnits="userSpaceOnUse">
<stop stop-color="#FFFFA6"/>
<stop offset="1" stop-color="#E9A83D"/>
</linearGradient>
<linearGradient id="paint41_linear_274_32432" x1="122.884" y1="138.605" x2="128.403" y2="138.074" gradientUnits="userSpaceOnUse">
<stop stop-color="#BE7A22"/>
<stop offset="1" stop-color="#FFCF5A"/>
</linearGradient>
<linearGradient id="paint42_linear_274_32432" x1="131.967" y1="138.011" x2="122.564" y2="138.536" gradientUnits="userSpaceOnUse">
<stop stop-color="#E9A83D"/>
<stop offset="1" stop-color="#8C5110"/>
</linearGradient>
<linearGradient id="paint43_linear_274_32432" x1="124.257" y1="145.479" x2="123.448" y2="130.976" gradientUnits="userSpaceOnUse">
<stop stop-color="#BE7A22"/>
<stop offset="0.1216" stop-color="#E9A83D"/>
<stop offset="0.2191" stop-color="#FFFFE1"/>
<stop offset="0.2776" stop-color="#FFFFA6"/>
<stop offset="0.3693" stop-color="#FFCF5A"/>
<stop offset="0.3821" stop-color="#E6B248"/>
<stop offset="0.3992" stop-color="#CB9235"/>
<stop offset="0.4169" stop-color="#B57925"/>
<stop offset="0.4354" stop-color="#A6681B"/>
<stop offset="0.4552" stop-color="#9D5D14"/>
<stop offset="0.4784" stop-color="#9A5A12"/>
<stop offset="0.5355" stop-color="#9F5F15"/>
<stop offset="0.6015" stop-color="#AD6D1C"/>
<stop offset="0.672" stop-color="#C48429"/>
<stop offset="0.7451" stop-color="#E4A43B"/>
<stop offset="0.7956" stop-color="#FFBF4A"/>
<stop offset="1" stop-color="#8C5110"/>
</linearGradient>
<linearGradient id="paint44_linear_274_32432" x1="133.068" y1="123.35" x2="140.012" y2="125.568" gradientUnits="userSpaceOnUse">
<stop stop-color="#BE7A22"/>
<stop offset="1" stop-color="#FFCF5A"/>
</linearGradient>
<linearGradient id="paint45_linear_274_32432" x1="145.055" y1="127.179" x2="130.791" y2="122.623" gradientUnits="userSpaceOnUse">
<stop stop-color="#E9A83D"/>
<stop offset="1" stop-color="#8C5110"/>
</linearGradient>
<linearGradient id="paint46_linear_274_32432" x1="140.716" y1="118.438" x2="136.722" y2="130.94" gradientUnits="userSpaceOnUse">
<stop stop-color="#BE7A22"/>
<stop offset="0.1216" stop-color="#E9A83D"/>
<stop offset="0.2191" stop-color="#FFFFE1"/>
<stop offset="0.2776" stop-color="#FFFFA6"/>
<stop offset="0.3693" stop-color="#FFCF5A"/>
<stop offset="0.3821" stop-color="#E6B248"/>
<stop offset="0.3992" stop-color="#CB9235"/>
<stop offset="0.4169" stop-color="#B57925"/>
<stop offset="0.4354" stop-color="#A6681B"/>
<stop offset="0.4552" stop-color="#9D5D14"/>
<stop offset="0.4784" stop-color="#9A5A12"/>
<stop offset="0.5355" stop-color="#9F5F15"/>
<stop offset="0.6015" stop-color="#AD6D1C"/>
<stop offset="0.672" stop-color="#C48429"/>
<stop offset="0.7451" stop-color="#E4A43B"/>
<stop offset="0.7956" stop-color="#FFBF4A"/>
<stop offset="1" stop-color="#8C5110"/>
</linearGradient>
<linearGradient id="paint47_linear_274_32432" x1="141.047" y1="134.362" x2="146.643" y2="145.11" gradientUnits="userSpaceOnUse">
<stop stop-color="#FFEE7A"/>
<stop offset="1" stop-color="#D3912F"/>
</linearGradient>
<linearGradient id="paint48_linear_274_32432" x1="150.034" y1="132.296" x2="136.822" y2="139.174" gradientUnits="userSpaceOnUse">
<stop stop-color="#FFBF4A"/>
<stop offset="0.1216" stop-color="#FFEE7A"/>
<stop offset="0.2011" stop-color="#FFFFE1"/>
<stop offset="0.2776" stop-color="#FFFFA6"/>
<stop offset="0.3693" stop-color="#FFCF5A"/>
<stop offset="0.4784" stop-color="#9A5A12"/>
<stop offset="0.6514" stop-color="#FFBF4A"/>
<stop offset="1" stop-color="#A86314"/>
</linearGradient>
<linearGradient id="paint49_linear_274_32432" x1="134.329" y1="121.662" x2="147.97" y2="147.57" gradientUnits="userSpaceOnUse">
<stop stop-color="#FFDF6A"/>
<stop offset="0.0459" stop-color="#FFDF6A"/>
<stop offset="1" stop-color="#BE7A22"/>
</linearGradient>
<linearGradient id="paint50_linear_274_32432" x1="97.3853" y1="141.687" x2="105.413" y2="150.763" gradientUnits="userSpaceOnUse">
<stop stop-color="#FFEE7A"/>
<stop offset="1" stop-color="#D3912F"/>
</linearGradient>
<linearGradient id="paint51_linear_274_32432" x1="92.2338" y1="149.335" x2="103.391" y2="139.467" gradientUnits="userSpaceOnUse">
<stop stop-color="#FFBF4A"/>
<stop offset="0.1216" stop-color="#FFEE7A"/>
<stop offset="0.2011" stop-color="#FFFFE1"/>
<stop offset="0.2776" stop-color="#FFFFA6"/>
<stop offset="0.3693" stop-color="#FFCF5A"/>
<stop offset="0.4784" stop-color="#9A5A12"/>
<stop offset="0.6514" stop-color="#FFBF4A"/>
<stop offset="1" stop-color="#A86314"/>
</linearGradient>
<linearGradient id="paint52_linear_274_32432" x1="87.9371" y1="130.862" x2="107.233" y2="152.884" gradientUnits="userSpaceOnUse">
<stop stop-color="#FFDF6A"/>
<stop offset="0.0459" stop-color="#FFDF6A"/>
<stop offset="1" stop-color="#BE7A22"/>
</linearGradient>
<linearGradient id="paint53_linear_274_32432" x1="147.849" y1="140.194" x2="144.204" y2="141.848" gradientUnits="userSpaceOnUse">
<stop stop-color="#FFEE7A"/>
<stop offset="1" stop-color="#D3912F"/>
</linearGradient>
<linearGradient id="paint54_linear_274_32432" x1="149.824" y1="139.517" x2="144.064" y2="141.796" gradientUnits="userSpaceOnUse">
<stop stop-color="#FFFFA6"/>
<stop offset="1" stop-color="#E9A83D"/>
</linearGradient>
<linearGradient id="paint55_linear_274_32432" x1="143.905" y1="132.612" x2="151.193" y2="148.676" gradientUnits="userSpaceOnUse">
<stop stop-color="#FFBF4A"/>
<stop offset="0.1216" stop-color="#FFEE7A"/>
<stop offset="0.2011" stop-color="#FFFFE1"/>
<stop offset="0.2776" stop-color="#FFFFA6"/>
<stop offset="0.3693" stop-color="#FFCF5A"/>
<stop offset="0.4784" stop-color="#9A5A12"/>
<stop offset="0.6514" stop-color="#FFBF4A"/>
<stop offset="1" stop-color="#A86314"/>
</linearGradient>
<linearGradient id="paint56_linear_274_32432" x1="149.866" y1="114.236" x2="144.064" y2="120.923" gradientUnits="userSpaceOnUse">
<stop stop-color="#BE7A22"/>
<stop offset="1" stop-color="#FFCF5A"/>
</linearGradient>
<linearGradient id="paint57_linear_274_32432" x1="139.85" y1="125.778" x2="151.768" y2="112.045" gradientUnits="userSpaceOnUse">
<stop stop-color="#E9A83D"/>
<stop offset="1" stop-color="#8C5110"/>
</linearGradient>
<linearGradient id="paint58_linear_274_32432" x1="138.831" y1="113.971" x2="150.868" y2="124.417" gradientUnits="userSpaceOnUse">
<stop stop-color="#BE7A22"/>
<stop offset="0.1216" stop-color="#E9A83D"/>
<stop offset="0.2191" stop-color="#FFFFE1"/>
<stop offset="0.2776" stop-color="#FFFFA6"/>
<stop offset="0.3693" stop-color="#FFCF5A"/>
<stop offset="0.3821" stop-color="#E6B248"/>
<stop offset="0.3992" stop-color="#CB9235"/>
<stop offset="0.4169" stop-color="#B57925"/>
<stop offset="0.4354" stop-color="#A6681B"/>
<stop offset="0.4552" stop-color="#9D5D14"/>
<stop offset="0.4784" stop-color="#9A5A12"/>
<stop offset="0.5355" stop-color="#9F5F15"/>
<stop offset="0.6015" stop-color="#AD6D1C"/>
<stop offset="0.672" stop-color="#C48429"/>
<stop offset="0.7451" stop-color="#E4A43B"/>
<stop offset="0.7956" stop-color="#FFBF4A"/>
<stop offset="1" stop-color="#8C5110"/>
</linearGradient>
<linearGradient id="paint59_linear_274_32432" x1="127.861" y1="147.736" x2="136.662" y2="139.408" gradientUnits="userSpaceOnUse">
<stop stop-color="#FFEE7A"/>
<stop offset="1" stop-color="#D3912F"/>
</linearGradient>
<linearGradient id="paint60_linear_274_32432" x1="123.409" y1="139.661" x2="133.647" y2="150.48" gradientUnits="userSpaceOnUse">
<stop stop-color="#FFBF4A"/>
<stop offset="0.1216" stop-color="#FFEE7A"/>
<stop offset="0.2011" stop-color="#FFFFE1"/>
<stop offset="0.2776" stop-color="#FFFFA6"/>
<stop offset="0.3693" stop-color="#FFCF5A"/>
<stop offset="0.4784" stop-color="#9A5A12"/>
<stop offset="0.6514" stop-color="#FFBF4A"/>
<stop offset="1" stop-color="#A86314"/>
</linearGradient>
<linearGradient id="paint61_linear_274_32432" x1="128.85" y1="146.801" x2="134.597" y2="141.363" gradientUnits="userSpaceOnUse">
<stop stop-color="#FFFFA6"/>
<stop offset="1" stop-color="#E9A83D"/>
</linearGradient>
<clipPath id="clip0_274_32432">
<rect x="10" y="10" width="150" height="129.825" rx="14.0351" fill="white"/>
</clipPath>
<clipPath id="clip1_274_32432">
<rect width="21.0526" height="15.7618" fill="white" transform="translate(17.0176 48.6104)"/>
</clipPath>
<clipPath id="clip2_274_32432">
<path d="M160 88.0702C160 76.9276 150.967 67.8948 139.825 67.8948H106.491C95.3486 67.8948 86.3158 76.9276 86.3158 88.0702V139.825H145.965C153.716 139.825 160 133.541 160 125.79V88.0702Z" fill="white"/>
</clipPath>
</defs>
</svg>
