<svg width="70" height="37" viewBox="0 0 70 37" fill="none" xmlns="http://www.w3.org/2000/svg">
<path d="M27.521 31.0084H28.1383C28.2266 30.9998 28.3155 30.9998 28.4038 31.0084L28.5643 31.0706L28.6754 31.1949C28.7076 31.2494 28.7247 31.3117 28.7248 31.3751C28.7255 31.4434 28.7061 31.5104 28.6692 31.5678C28.6319 31.6273 28.5783 31.6748 28.5149 31.7045C28.5981 31.7252 28.672 31.7733 28.7248 31.8413C28.7746 31.9073 28.8007 31.9883 28.7989 32.0712C28.7979 32.1405 28.781 32.2086 28.7495 32.2701C28.722 32.3333 28.677 32.3873 28.6199 32.4255C28.5595 32.4676 28.4893 32.4933 28.4161 32.5001H27.521V31.0084ZM27.8297 31.2632V31.6113H28.2495L28.3729 31.5553L28.4161 31.4373L28.3976 31.3192L28.2803 31.2694H27.8482L27.8297 31.2632ZM27.8297 31.8848V32.2888H28.3174L28.4285 32.2266L28.4717 32.0961V31.9842L28.3729 31.9096C28.2827 31.899 28.1915 31.899 28.1013 31.9096L27.8297 31.8848Z" fill="white"/>
<path d="M29.4409 32.5312V31.891L28.8853 31.0084H29.2433L29.6014 31.6113L29.9471 31.0084H30.299L29.7434 31.891V32.5312H29.4409Z" fill="white"/>
<path d="M31.3362 32.5312V31.2632H30.8855V31.0084H32.0893V31.2632H31.6387V32.5312H31.3362Z" fill="white"/>
<path d="M32.2867 32.5312V31.0084H32.5892V31.6051H33.1881V31.0084H33.4906V32.5312H33.1881V31.8661H32.5892V32.5312H32.2867Z" fill="white"/>
<path d="M33.8054 32.5312V31.0084H34.9228V31.2632H34.1079V31.6051H34.8672V31.8599H34.1079V32.2701H34.9537V32.5312H33.8054Z" fill="white"/>
<path d="M36.0896 31.0084H35.7871V32.5249H36.0896V31.0084Z" fill="white"/>
<path d="M36.386 32.5312V31.0084H36.6823L37.2996 32.0215V31.0084H37.5836V32.5312H37.275L36.67 31.5367V32.5312H36.386Z" fill="white"/>
<path d="M37.9045 31.0084H38.4601C38.5544 30.9956 38.6499 30.9956 38.7441 31.0084C38.8311 31.0324 38.91 31.0796 38.9725 31.1451C39.0376 31.2164 39.0861 31.3013 39.1145 31.3937C39.1761 31.6174 39.1761 31.8538 39.1145 32.0774C39.0812 32.1773 39.0264 32.2686 38.954 32.3447C38.8924 32.4009 38.8183 32.4414 38.7379 32.4628C38.6502 32.4909 38.5583 32.5036 38.4663 32.5001H37.9045V31.0084ZM38.207 31.2632V32.2701H38.4355C38.4969 32.2783 38.5592 32.2783 38.6207 32.2701L38.7441 32.208C38.7809 32.1653 38.8064 32.114 38.8182 32.0588C38.8457 31.9704 38.8582 31.8779 38.8552 31.7853C38.8592 31.6927 38.8467 31.6 38.8182 31.5118L38.7318 31.3627L38.596 31.2943C38.5119 31.2847 38.427 31.2847 38.3429 31.2943L38.207 31.2632Z" fill="white"/>
<path d="M39.4232 31.0084H39.7257V31.8288C39.7199 31.9137 39.7199 31.9988 39.7257 32.0836L39.8183 32.2328C39.8784 32.2732 39.9499 32.2928 40.022 32.2888C40.0897 32.2958 40.1576 32.2781 40.2134 32.239L40.2937 32.1085C40.3025 32.0217 40.3025 31.9343 40.2937 31.8475V31.0084H40.5962V31.8102C40.6094 31.9383 40.6094 32.0674 40.5962 32.1955C40.5805 32.2642 40.5488 32.3282 40.5036 32.382C40.4556 32.4383 40.3939 32.4812 40.3245 32.5063C40.232 32.5421 40.1334 32.559 40.0344 32.556C39.9232 32.5602 39.8122 32.5433 39.7072 32.5063C39.6416 32.4747 39.5828 32.4304 39.5343 32.3758L39.4479 32.2017C39.4347 32.0736 39.4347 31.9445 39.4479 31.8164L39.4232 31.0084Z" fill="white"/>
<path d="M40.8678 32.0339H41.1641C41.1754 32.1189 41.2145 32.1976 41.2752 32.2577C41.3395 32.3052 41.4179 32.3293 41.4975 32.3261C41.5766 32.3332 41.6556 32.3111 41.7197 32.2639L41.7938 32.1147V32.0277L41.6827 31.9594L41.4358 31.8972C41.3119 31.8734 41.1955 31.8201 41.0962 31.7418C41.0519 31.7046 41.0162 31.658 40.9917 31.6054C40.9671 31.5528 40.9544 31.4954 40.9542 31.4373C40.956 31.3597 40.9795 31.2843 41.0221 31.2197C41.0674 31.1508 41.1318 31.0968 41.2073 31.0643C41.3024 31.0302 41.4027 31.0134 41.5037 31.0146C41.656 31.0015 41.8078 31.0458 41.9296 31.1389C41.9773 31.1808 42.0157 31.2324 42.0423 31.2902C42.0689 31.348 42.0831 31.4108 42.084 31.4746H41.7815C41.7724 31.4104 41.7419 31.3512 41.695 31.3067C41.638 31.2703 41.5711 31.2529 41.5037 31.257C41.4295 31.252 41.3558 31.2717 41.2938 31.313L41.2444 31.4062L41.2938 31.4994C41.38 31.5483 41.474 31.582 41.5716 31.5989C41.6845 31.6234 41.7943 31.6609 41.8988 31.7107C41.9674 31.7433 42.0253 31.7951 42.0654 31.8599C42.1088 31.933 42.1303 32.0172 42.1272 32.1023C42.1264 32.1906 42.1007 32.2768 42.0531 32.3509C42.0048 32.4274 41.9334 32.4862 41.8494 32.5187C41.7451 32.5591 41.6339 32.5781 41.5222 32.5747C41.3641 32.5875 41.2071 32.5385 41.0839 32.4379C40.9738 32.3393 40.9072 32.2007 40.8987 32.0526" fill="white"/>
<path d="M42.689 32.5312V31.2632H42.2445V31.0084H43.4421V31.2632H42.9977V32.5312H42.689Z" fill="white"/>
<path d="M43.6396 32.525V31.0084H44.257C44.3759 31.0016 44.4951 31.0163 44.6089 31.0519C44.6814 31.0776 44.7426 31.1282 44.7817 31.1949C44.8273 31.2673 44.8509 31.3515 44.8496 31.4373C44.8538 31.5398 44.8184 31.6401 44.7509 31.717C44.6718 31.7981 44.5669 31.8487 44.4545 31.8599C44.5128 31.8947 44.5667 31.9365 44.615 31.9842C44.6784 32.0629 44.7361 32.146 44.7879 32.2328L44.9731 32.525H44.6336L44.4113 32.1955C44.3625 32.1177 44.3089 32.0429 44.2508 31.9718L44.1582 31.9096C44.1091 31.9017 44.0591 31.9017 44.0101 31.9096H43.9421V32.5312L43.6396 32.525ZM43.9421 31.6486H44.1706C44.261 31.6548 44.3517 31.6548 44.4422 31.6486L44.5286 31.5802L44.5595 31.4683L44.5224 31.344L44.4051 31.2819H43.9421V31.6486Z" fill="white"/>
<path d="M45.4793 32.5312V31.891L44.9237 31.0084H45.2818L45.6398 31.6113L45.9855 31.0084H46.3374L45.7818 31.891V32.5312H45.4793Z" fill="white"/>
<path d="M46.5411 32.239H46.251V32.5312H46.5411V32.239Z" fill="white"/>
<path d="M47.4301 32.5312V31.0084H48.461V31.2632H47.7325V31.6237H48.3622V31.8848H47.7325V32.5312H47.4301Z" fill="white"/>
<path d="M48.6525 31.7791C48.6495 31.6454 48.6726 31.5123 48.7204 31.3875C48.7534 31.3102 48.8017 31.2404 48.8624 31.1824C48.9145 31.1222 48.9801 31.0753 49.0537 31.0457C49.1572 31.002 49.2687 30.9808 49.3809 30.9835C49.4787 30.9787 49.5765 30.9944 49.6679 31.0297C49.7593 31.065 49.8424 31.1192 49.9118 31.1886C50.0421 31.3528 50.113 31.5566 50.113 31.7667C50.113 31.9767 50.0421 32.1806 49.9118 32.3447C49.842 32.4141 49.759 32.4686 49.6678 32.5049C49.5766 32.5412 49.479 32.5586 49.3809 32.556C49.2817 32.5606 49.1826 32.5441 49.0901 32.5077C48.9976 32.4713 48.9137 32.4158 48.8439 32.3447C48.7756 32.2681 48.7231 32.1787 48.6892 32.0817C48.6553 31.9846 48.6407 31.8818 48.6463 31.7791M48.9611 31.7791C48.9497 31.9199 48.9917 32.0597 49.0784 32.1707C49.1172 32.2145 49.1648 32.2495 49.218 32.2735C49.2712 32.2975 49.3288 32.3099 49.3871 32.3099C49.4454 32.3099 49.503 32.2975 49.5562 32.2735C49.6094 32.2495 49.657 32.2145 49.6958 32.1707C49.7826 32.0597 49.8245 31.9199 49.8131 31.7791C49.8257 31.6382 49.7837 31.4979 49.6958 31.3875C49.6594 31.3446 49.6138 31.3106 49.5625 31.288C49.5112 31.2654 49.4554 31.2548 49.3995 31.257C49.3416 31.2547 49.284 31.2652 49.2307 31.2877C49.1774 31.3103 49.1296 31.3444 49.0908 31.3875C49.0111 31.5018 48.972 31.6397 48.9797 31.7791" fill="white"/>
<path d="M50.3563 32.5249V31.0084H50.9737C51.0926 31.0011 51.2119 31.0159 51.3255 31.0519C51.3998 31.0773 51.4631 31.1278 51.5046 31.1949C51.548 31.268 51.5694 31.3521 51.5663 31.4373C51.5705 31.5398 51.5351 31.64 51.4675 31.7169C51.3885 31.7981 51.2836 31.8487 51.1712 31.8599C51.2305 31.8931 51.2846 31.935 51.3317 31.9842C51.3971 32.0613 51.455 32.1446 51.5046 32.2328L51.6898 32.5249H51.3255L51.1095 32.1955C51.0593 32.117 51.0036 32.0422 50.9428 31.9718L50.8564 31.9096C50.8052 31.9018 50.7532 31.9018 50.702 31.9096H50.6403V32.5312L50.3563 32.5249ZM50.6588 31.6486H50.8811C50.9736 31.6547 51.0664 31.6547 51.1589 31.6486L51.2453 31.5802V31.4683L51.2021 31.344L51.0848 31.2819H50.628L50.6588 31.6486Z" fill="white"/>
<path d="M52.801 32.5312V31.2632H52.3503V31.0084H53.548V31.2632H53.1035V32.5312H52.801Z" fill="white"/>
<path d="M53.7455 32.5312V31.0084H54.0542V31.6051H54.6468V31.0084H54.9555V32.5312H54.6468V31.8661H54.0542V32.5312H53.7455Z" fill="white"/>
<path d="M55.2703 32.5312V31.0084H56.3876V31.2632H55.5728V31.6051H56.3321V31.8599H55.5728V32.2701H56.4185V32.5312H55.2703Z" fill="white"/>
<path d="M57.5545 31.0084H57.252V32.5249H57.5545V31.0084Z" fill="white"/>
<path d="M57.8508 32.5312V31.0084H58.1472L58.7645 32.0215V31.0084H59.0423V32.5312H58.7398L58.1286 31.5367V32.5312H57.8508Z" fill="white"/>
<path d="M59.3632 31.0084H59.9188C60.0151 30.9957 60.1127 30.9957 60.209 31.0084C60.2953 31.034 60.3738 31.081 60.4374 31.1451C60.5025 31.2164 60.5509 31.3013 60.5794 31.3937C60.6409 31.6174 60.6409 31.8538 60.5794 32.0774C60.5461 32.1773 60.4913 32.2686 60.4189 32.3447C60.3564 32.3996 60.2826 32.44 60.2028 32.4628C60.115 32.4905 60.0232 32.5031 59.9312 32.5001H59.3571L59.3632 31.0084ZM59.6719 31.2632V32.2701H59.8818C59.9412 32.278 60.0014 32.278 60.0608 32.2701L60.1843 32.208C60.2254 32.1676 60.2534 32.1155 60.2645 32.0588C60.2762 31.968 60.2762 31.8761 60.2645 31.7853C60.277 31.6946 60.277 31.6026 60.2645 31.5118L60.1781 31.3627L60.0361 31.2943C59.9541 31.2842 59.8712 31.2842 59.7892 31.2943L59.6719 31.2632Z" fill="white"/>
<path d="M60.8881 31.0084H61.1906V31.8288C61.1848 31.9137 61.1848 31.9988 61.1906 32.0836L61.2832 32.2328C61.3414 32.2723 61.4106 32.2919 61.4807 32.2888C61.5503 32.2957 61.6201 32.2781 61.6783 32.239L61.7586 32.1085C61.7634 32.0216 61.7634 31.9344 61.7586 31.8475V31.0084H62.0672V31.8102C62.0771 31.9384 62.0771 32.0673 62.0672 32.1955C62.0516 32.2642 62.0198 32.3282 61.9746 32.382C61.9266 32.4383 61.8649 32.4812 61.7956 32.5063C61.703 32.5416 61.6044 32.5585 61.5054 32.556C61.3942 32.5602 61.2833 32.5433 61.1783 32.5063C61.1108 32.4747 61.05 32.4304 60.9992 32.3758L60.919 32.2017C60.8923 32.0752 60.8819 31.9456 60.8881 31.8164V31.0084Z" fill="white"/>
<path d="M62.3512 32.0339H62.6475C62.6588 32.1189 62.6979 32.1976 62.7586 32.2577C62.8192 32.3025 62.8935 32.3245 62.9685 32.3198C63.0477 32.327 63.1266 32.3049 63.1908 32.2577L63.2649 32.1085V32.0215L63.1599 31.9531L62.913 31.891C62.7878 31.8655 62.6697 31.8125 62.5673 31.7356C62.5237 31.698 62.489 31.6513 62.4655 31.5986C62.442 31.546 62.4304 31.4887 62.4314 31.431C62.4307 31.354 62.4521 31.2785 62.4932 31.2135C62.5407 31.1441 62.6072 31.0902 62.6846 31.0581C62.7795 31.0235 62.8799 31.0066 62.9809 31.0084C63.1333 30.9953 63.2851 31.0396 63.4068 31.1327C63.4545 31.1746 63.4929 31.2261 63.5195 31.284C63.5461 31.3418 63.5603 31.4046 63.5612 31.4683H63.2525C63.2477 31.4042 63.2191 31.3443 63.1723 31.3005C63.1129 31.2644 63.044 31.247 62.9747 31.2508C62.9026 31.2467 62.8311 31.2664 62.771 31.3067L62.7216 31.4L62.7648 31.4932C62.8539 31.5406 62.9497 31.5742 63.0488 31.5926C63.1615 31.6182 63.2711 31.6557 63.376 31.7045C63.4424 31.7404 63.4995 31.7915 63.5427 31.8537C63.5832 31.928 63.6044 32.0113 63.6044 32.0961C63.6036 32.1843 63.5779 32.2706 63.5303 32.3447C63.4805 32.4198 63.4096 32.4782 63.3266 32.5125C63.2223 32.5529 63.1111 32.5719 62.9994 32.5684C62.8413 32.5813 62.6843 32.5323 62.5611 32.4317C62.451 32.3331 62.3844 32.1945 62.3759 32.0464" fill="white"/>
<path d="M64.1538 32.5312V31.2632H63.7094V31.0084H64.907V31.2632H64.4625V32.5312H64.1538Z" fill="white"/>
<path d="M65.1045 32.525V31.0084H65.7218C65.8408 31.0016 65.96 31.0163 66.0737 31.0519C66.1462 31.0776 66.2074 31.1282 66.2466 31.1949C66.2921 31.2673 66.3157 31.3515 66.3145 31.4373C66.3169 31.5407 66.2793 31.641 66.2095 31.717C66.1321 31.8005 66.0263 31.8515 65.9132 31.8599C65.9744 31.8931 66.0305 31.935 66.0799 31.9842C66.1432 32.0629 66.201 32.146 66.2527 32.2328L66.4379 32.525H66.0737L65.8515 32.1955C65.8026 32.1177 65.749 32.0429 65.691 31.9718L65.5984 31.9096C65.5472 31.9018 65.4952 31.9018 65.444 31.9096H65.4379V32.5312L65.1045 32.525ZM65.407 31.6486H65.6354C65.7258 31.6546 65.8166 31.6546 65.907 31.6486L65.9935 31.5802V31.4683L65.9502 31.344L65.8391 31.2819H65.4379L65.407 31.6486Z" fill="white"/>
<path d="M66.9442 32.5312V31.891L66.3885 31.0084H66.7466L67.0985 31.6113L67.4504 31.0084H67.8023L67.2466 31.891V32.5312H66.9442Z" fill="white"/>
<path d="M27.2308 29.5416H67.7714" stroke="white" stroke-width="0.39" stroke-miterlimit="10"/>
<path d="M40.5715 16.8622C40.4471 16.9355 40.3458 17.0426 40.2792 17.1712C40.2126 17.2999 40.1834 17.4448 40.1949 17.5894V22.3753L40.1394 22.4498C39.5335 22.9204 38.8166 23.2245 38.059 23.3324C37.3129 23.4432 36.5598 23.4993 35.8057 23.5002C34.698 23.5005 33.5968 23.3308 32.5399 22.9968C31.5998 22.7062 30.7282 22.2262 29.978 21.5859C29.2396 20.9443 28.664 20.1346 28.2988 19.2241C27.8744 18.1618 27.6645 17.0251 27.6815 15.8802C27.6705 14.8485 27.8811 13.8266 28.2988 12.8844C28.6799 12.046 29.2382 11.3015 29.9348 10.7028C30.653 10.1027 31.4816 9.6507 32.3733 9.37275C33.3341 9.06988 34.3358 8.91892 35.3427 8.92524C35.9372 8.92743 36.531 8.96687 37.1206 9.04333C37.7379 9.11792 38.2997 9.19871 38.8738 9.28573L39.5344 9.37275L40.1517 9.46598C40.2258 9.46598 40.2567 9.46598 40.2567 9.56542C40.2601 10.0069 40.2249 10.4478 40.1517 10.8831C40.09 11.2974 40.0221 11.7263 39.948 12.1697C39.948 12.2567 39.948 12.3499 39.911 12.4556C39.8739 12.5612 39.911 12.6482 39.911 12.7353L39.806 12.8098L39.7011 12.7353C39.6191 12.236 39.4386 11.7584 39.1702 11.3306C38.9254 10.9413 38.6014 10.6087 38.2195 10.3548C37.8305 10.0964 37.4003 9.90714 36.9477 9.79539C36.4711 9.67685 35.9818 9.61839 35.4908 9.62136C34.6669 9.61433 33.8488 9.75969 33.077 10.0502C32.3568 10.3338 31.6984 10.7561 31.1386 11.2933C30.5841 11.8188 30.1428 12.4535 29.8422 13.1579C29.5177 13.9089 29.3517 14.7195 29.3545 15.5384C29.3423 17.3774 30.0446 19.1484 31.3114 20.4734C31.9216 21.1071 32.6494 21.6139 33.4536 21.9651C34.2901 22.3341 35.1949 22.5206 36.1082 22.512C36.5248 22.5108 36.9397 22.4565 37.3428 22.3504C37.7431 22.2407 38.1114 22.0361 38.417 21.7537V17.5397C38.431 17.4262 38.4136 17.3111 38.3668 17.2069C38.3199 17.1027 38.2455 17.0136 38.1516 16.9493C37.9554 16.8423 37.7485 16.7569 37.5342 16.6944C37.4478 16.6634 37.3552 16.6261 37.2441 16.595C37.1243 16.554 37.0086 16.502 36.8984 16.4396L36.849 16.3277L36.9477 16.2594C38.4335 16.2594 39.9151 16.2842 41.3926 16.3339V16.5453C41.0887 16.6007 40.7964 16.7079 40.5283 16.8622" fill="white"/>
<path d="M40.5715 16.8622C40.4471 16.9355 40.3458 17.0426 40.2792 17.1712C40.2126 17.2999 40.1834 17.4448 40.1949 17.5894V22.3753L40.1394 22.4498C39.5335 22.9204 38.8166 23.2245 38.059 23.3324C37.3129 23.4432 36.5598 23.4993 35.8057 23.5002C34.698 23.5005 33.5968 23.3308 32.5399 22.9968C31.5998 22.7062 30.7282 22.2262 29.978 21.5859C29.2396 20.9443 28.664 20.1346 28.2988 19.2241C27.8744 18.1618 27.6645 17.0251 27.6815 15.8802C27.6705 14.8485 27.8811 13.8266 28.2988 12.8844C28.6799 12.046 29.2382 11.3015 29.9348 10.7028C30.653 10.1027 31.4816 9.6507 32.3733 9.37275C33.3341 9.06988 34.3358 8.91892 35.3427 8.92524C35.9372 8.92743 36.531 8.96687 37.1206 9.04333C37.7379 9.11792 38.2997 9.19871 38.8738 9.28573L39.5344 9.37275L40.1517 9.46598C40.2258 9.46598 40.2567 9.46598 40.2567 9.56542C40.2601 10.0069 40.2249 10.4478 40.1517 10.8831C40.09 11.2974 40.0221 11.7263 39.948 12.1697C39.948 12.2567 39.948 12.3499 39.911 12.4556C39.8739 12.5612 39.911 12.6482 39.911 12.7353L39.806 12.8098L39.7011 12.7353C39.6191 12.236 39.4386 11.7584 39.1702 11.3306C38.9254 10.9413 38.6014 10.6087 38.2195 10.3548C37.8305 10.0964 37.4003 9.90714 36.9477 9.79539C36.4711 9.67685 35.9818 9.61839 35.4908 9.62136C34.6669 9.61433 33.8488 9.75969 33.077 10.0502C32.3568 10.3338 31.6984 10.7561 31.1386 11.2933C30.5841 11.8188 30.1428 12.4535 29.8422 13.1579C29.5177 13.9089 29.3517 14.7195 29.3545 15.5384C29.3423 17.3774 30.0446 19.1484 31.3114 20.4734C31.9216 21.1071 32.6494 21.6139 33.4536 21.9651C34.2901 22.3341 35.1949 22.5206 36.1082 22.512C36.5248 22.5108 36.9397 22.4565 37.3428 22.3504C37.7431 22.2407 38.1114 22.0361 38.417 21.7537V17.5397C38.431 17.4262 38.4136 17.3111 38.3668 17.2069C38.3199 17.1027 38.2455 17.0136 38.1516 16.9493C37.9554 16.8423 37.7485 16.7569 37.5342 16.6944C37.4478 16.6634 37.3552 16.6261 37.2441 16.595C37.1243 16.554 37.0086 16.502 36.8984 16.4396L36.849 16.3277L36.9477 16.2594C38.4335 16.2594 39.9151 16.2842 41.3926 16.3339V16.5453C41.1036 16.6053 40.8263 16.7124 40.5715 16.8622Z" stroke="white" stroke-width="0.21" stroke-miterlimit="10"/>
<path d="M46.2078 9.88862C46.0804 9.98154 45.9804 10.1075 45.9185 10.253C45.8565 10.3986 45.8349 10.5583 45.8559 10.7153V22.0645C45.8574 22.7012 45.7445 23.3329 45.5225 23.9291C45.3005 24.5104 44.997 25.0566 44.6212 25.5513C44.2384 26.0527 43.7946 26.5038 43.3001 26.8938C42.8062 27.2787 42.2746 27.6119 41.7136 27.8883L41.5901 27.851V27.708C42.0284 27.2295 42.405 26.7882 42.7322 26.378C43.0412 25.9961 43.3043 25.5789 43.5162 25.1349C43.7232 24.679 43.8725 24.1987 43.9607 23.7054C44.0608 23.1141 44.1083 22.5151 44.1027 21.9153V10.7277C44.1197 10.5998 44.1069 10.4697 44.0651 10.3478C44.0233 10.2258 43.9537 10.1154 43.8619 10.0254C43.6847 9.90816 43.4912 9.81809 43.2878 9.7581L43.0347 9.66487C42.9026 9.6224 42.7745 9.56833 42.6519 9.50327L42.5963 9.37275L42.7013 9.31059C43.2199 9.36032 43.7755 9.38518 44.3496 9.38518C44.4977 9.38518 44.6583 9.38518 44.8188 9.38518H45.2879H46.1769C46.4794 9.38518 46.7942 9.38518 47.0906 9.38518V9.59028C46.7686 9.63944 46.4587 9.74907 46.1769 9.91348" fill="white"/>
<path d="M46.2078 9.88862C46.0804 9.98154 45.9804 10.1075 45.9185 10.253C45.8565 10.3986 45.8349 10.5583 45.8559 10.7153V22.0645C45.8574 22.7012 45.7445 23.3329 45.5225 23.9291C45.3005 24.5104 44.997 25.0566 44.6212 25.5513C44.2384 26.0527 43.7946 26.5038 43.3001 26.8938C42.8062 27.2787 42.2746 27.6119 41.7136 27.8883L41.5901 27.851V27.708C42.0284 27.2295 42.405 26.7882 42.7322 26.378C43.0412 25.9961 43.3043 25.5789 43.5162 25.1349C43.7232 24.679 43.8725 24.1987 43.9607 23.7054C44.0608 23.1141 44.1083 22.5151 44.1027 21.9153V10.7277C44.1197 10.5998 44.1069 10.4697 44.0651 10.3478C44.0233 10.2258 43.9537 10.1154 43.8619 10.0254C43.6847 9.90816 43.4912 9.81809 43.2878 9.7581L43.0347 9.66487C42.9026 9.6224 42.7745 9.56833 42.6519 9.50327L42.5963 9.37275L42.7013 9.31059C43.2199 9.36032 43.7755 9.38518 44.3496 9.38518C44.4977 9.38518 44.6583 9.38518 44.8188 9.38518H45.2879H46.1769C46.4794 9.38518 46.7942 9.38518 47.0906 9.38518V9.59028C46.7809 9.63541 46.4818 9.73648 46.2078 9.88862Z" stroke="white" stroke-width="0.21" stroke-miterlimit="10"/>
<path d="M52.0292 23.2765H51.0785H49.7327L48.3931 23.3138L48.3005 23.2268L48.3622 23.1087C48.7436 22.9888 49.0726 22.7409 49.2944 22.4063C49.4941 22.0617 49.5945 21.6678 49.5846 21.2689V10.6655C49.6012 10.5053 49.5731 10.3436 49.5033 10.1986C49.4335 10.0536 49.3248 9.93118 49.1895 9.84512C48.9026 9.68575 48.5884 9.58241 48.2635 9.54057L48.1956 9.42869L48.2882 9.33546C48.6462 9.36654 48.9981 9.39761 49.35 9.41004C49.7019 9.42247 50.0723 9.41004 50.4488 9.41004C50.8254 9.41004 51.1588 9.41004 51.5107 9.41004C51.8598 9.4004 52.2081 9.37135 52.554 9.32303C52.6034 9.32303 52.6342 9.32303 52.6527 9.39761C52.6713 9.4722 52.6527 9.50949 52.6034 9.52814C52.2912 9.59025 51.9882 9.69261 51.702 9.83269C51.4736 9.95078 51.3625 10.2367 51.3625 10.678V21.1944C51.3172 21.6871 51.4462 22.1802 51.7267 22.5866C52.0755 22.9122 52.5352 23.0902 53.0108 23.0838V23.2889C52.6713 23.2889 52.3441 23.2889 52.0292 23.2889" fill="white"/>
<path d="M52.0292 23.2765H51.0785H49.7327L48.3931 23.3138L48.3005 23.2268L48.3622 23.1087C48.7436 22.9888 49.0726 22.7409 49.2944 22.4063C49.4941 22.0617 49.5945 21.6678 49.5846 21.2689V10.6655C49.6012 10.5053 49.5731 10.3436 49.5033 10.1986C49.4335 10.0536 49.3248 9.93118 49.1895 9.84512C48.9026 9.68575 48.5884 9.58241 48.2635 9.54057L48.1956 9.42869L48.2882 9.33546C48.6462 9.36654 48.9981 9.39761 49.35 9.41004C49.7019 9.42247 50.0723 9.41004 50.4488 9.41004C50.8254 9.41004 51.1588 9.41004 51.5107 9.41004C51.8598 9.4004 52.2081 9.37135 52.554 9.32303C52.6034 9.32303 52.6342 9.32303 52.6527 9.39761C52.6713 9.4722 52.6527 9.50949 52.6034 9.52814C52.2912 9.59025 51.9882 9.69261 51.702 9.83269C51.4736 9.95078 51.3625 10.2367 51.3625 10.678V21.1944C51.3172 21.6871 51.4462 22.1802 51.7267 22.5866C52.0755 22.9122 52.5352 23.0902 53.0108 23.0838V23.2889C52.6713 23.2889 52.3441 23.2889 52.0292 23.2765Z" stroke="white" stroke-width="0.21" stroke-miterlimit="10"/>
<path d="M57.9743 23.2765H57.0174H55.6716L54.3258 23.3138L54.2394 23.2268L54.3011 23.1087C54.6825 22.9888 55.0115 22.7409 55.2333 22.4063C55.433 22.0617 55.5334 21.6678 55.5235 21.2689V10.6655C55.5401 10.5053 55.512 10.3436 55.4422 10.1986C55.3724 10.0536 55.2637 9.93118 55.1284 9.84512C54.8415 9.68575 54.5273 9.58241 54.2024 9.54057L54.1406 9.42869L54.2271 9.33546C54.5851 9.36654 54.937 9.39761 55.295 9.41004C55.6531 9.42247 56.0112 9.41004 56.3816 9.41004C56.752 9.41004 57.0977 9.41004 57.4496 9.41004C57.7987 9.4004 58.147 9.37135 58.4929 9.32303C58.5422 9.32303 58.5793 9.32303 58.5916 9.39761C58.604 9.4722 58.5916 9.50949 58.5423 9.52814C58.2301 9.59025 57.9271 9.69261 57.6409 9.83269C57.4125 9.95078 57.2952 10.2367 57.2952 10.678V21.1944C57.2512 21.6879 57.3825 22.1812 57.6656 22.5866C58.0144 22.9122 58.4741 23.0902 58.9497 23.0838V23.2889C58.6102 23.2889 58.283 23.2889 57.9743 23.2889" fill="white"/>
<path d="M57.9743 23.2765H57.0174H55.6716L54.3258 23.3138L54.2394 23.2268L54.3011 23.1087C54.6825 22.9888 55.0115 22.7409 55.2333 22.4063C55.433 22.0617 55.5334 21.6678 55.5235 21.2689V10.6655C55.5401 10.5053 55.512 10.3436 55.4422 10.1986C55.3724 10.0536 55.2637 9.93118 55.1284 9.84512C54.8415 9.68575 54.5273 9.58241 54.2024 9.54057L54.1406 9.42869L54.2271 9.33546C54.5851 9.36654 54.937 9.39761 55.295 9.41004C55.6531 9.42247 56.0112 9.41004 56.3816 9.41004C56.752 9.41004 57.0977 9.41004 57.4496 9.41004C57.7987 9.4004 58.147 9.37135 58.4929 9.32303C58.5422 9.32303 58.5793 9.32303 58.5916 9.39761C58.604 9.4722 58.5916 9.50949 58.5423 9.52814C58.2301 9.59025 57.9271 9.69261 57.6409 9.83269C57.4125 9.95078 57.2952 10.2367 57.2952 10.678V21.1944C57.2512 21.6879 57.3825 22.1812 57.6656 22.5866C58.0144 22.9122 58.4741 23.0902 58.9497 23.0838V23.2889C58.6102 23.2889 58.283 23.2889 57.9743 23.2765Z" stroke="white" stroke-width="0.21" stroke-miterlimit="10"/>
<path d="M67.8085 11.6414L67.6974 11.7035L67.6048 11.6165C67.6286 11.3968 67.6002 11.1746 67.5218 10.9681C67.4435 10.7617 67.3174 10.577 67.1541 10.4294C66.7787 10.1781 66.3325 10.056 65.8824 10.0813C65.6573 10.0793 65.4324 10.0938 65.2095 10.1248C64.9996 10.1248 64.7712 10.1745 64.5366 10.2118C64.302 10.2491 64.1847 10.2678 63.981 10.2864C63.7773 10.3051 63.5921 10.3175 63.4192 10.3175V15.2898H66.8454C66.9936 15.2799 67.1354 15.2258 67.2529 15.1344C67.3867 15.0539 67.5057 14.9509 67.6048 14.8298H67.7221L67.7838 14.9293C67.7838 15.4079 67.7035 15.874 67.648 16.3277C67.5924 16.7815 67.5122 17.2228 67.4319 17.664L67.3146 17.7262L67.2282 17.6392C67.2591 17.4256 67.237 17.2076 67.1637 17.0048C67.0904 16.802 66.9684 16.6206 66.8084 16.4769C66.438 16.2483 66.0076 16.1378 65.5737 16.1599H63.4439V21.2689C63.4493 21.4823 63.4932 21.6929 63.5736 21.8905C63.6521 22.1176 63.7713 22.3283 63.9254 22.512C64.0767 22.6779 64.2566 22.8147 64.4563 22.916C64.6609 23.0205 64.8875 23.0738 65.1169 23.0714V23.2765H64.944C64.7652 23.2896 64.5858 23.2896 64.407 23.2765L63.876 23.2268L63.3451 23.1895C63.1723 23.1895 63.0056 23.1895 62.8327 23.1895C62.6641 23.1802 62.4951 23.1802 62.3265 23.1895L61.8203 23.2392C61.6166 23.2392 61.419 23.2765 61.203 23.2827H60.6288H60.4992L60.4128 23.1895L60.4745 23.0776C60.7181 23.0429 60.9565 22.9782 61.1845 22.8849C61.3371 22.8259 61.4669 22.7191 61.5549 22.5804C61.6349 22.4314 61.6773 22.2649 61.6783 22.0956C61.6783 21.8967 61.6783 21.6481 61.6783 21.3435V10.6469C61.6783 10.2553 61.6042 10.0254 61.4499 9.91349C61.2835 9.81875 61.1048 9.74764 60.919 9.70217L60.6042 9.58408C60.4663 9.53622 60.3338 9.47371 60.2091 9.39762L60.1597 9.27953L60.2584 9.21116C61.3264 9.2671 62.4006 9.29196 63.481 9.29196H65.2836H65.549H65.8454C66.2322 9.29196 66.6438 9.29196 67.08 9.29196C67.4566 9.28291 67.8262 9.18724 68.1604 9.01227H68.2777V9.13658L67.8085 11.6414Z" fill="white"/>
<path d="M67.8085 11.6414L67.6974 11.7035L67.6048 11.6165C67.6286 11.3968 67.6002 11.1746 67.5218 10.9681C67.4435 10.7617 67.3174 10.577 67.1541 10.4294C66.7787 10.1781 66.3325 10.056 65.8824 10.0813C65.6573 10.0793 65.4324 10.0938 65.2095 10.1248C64.9996 10.1248 64.7712 10.1745 64.5366 10.2118C64.302 10.2491 64.1847 10.2678 63.981 10.2864C63.7773 10.3051 63.5921 10.3175 63.4192 10.3175V15.2898H66.8454C66.9936 15.2799 67.1354 15.2258 67.2529 15.1344C67.3867 15.0539 67.5057 14.9509 67.6048 14.8298H67.7221L67.7838 14.9293C67.7838 15.4079 67.7035 15.874 67.648 16.3277C67.5924 16.7815 67.5122 17.2228 67.4319 17.664L67.3146 17.7262L67.2282 17.6392C67.2591 17.4256 67.237 17.2076 67.1637 17.0048C67.0904 16.802 66.9684 16.6206 66.8084 16.4769C66.438 16.2483 66.0076 16.1378 65.5737 16.1599H63.4439V21.2689C63.4493 21.4823 63.4932 21.6929 63.5736 21.8905C63.6521 22.1176 63.7713 22.3283 63.9254 22.512C64.0767 22.6779 64.2566 22.8147 64.4563 22.916C64.6609 23.0205 64.8875 23.0738 65.1169 23.0714V23.2765H64.944C64.7652 23.2896 64.5858 23.2896 64.407 23.2765L63.876 23.2268L63.3451 23.1895C63.1723 23.1895 63.0056 23.1895 62.8327 23.1895C62.6641 23.1802 62.4951 23.1802 62.3265 23.1895L61.8203 23.2392C61.6166 23.2392 61.419 23.2765 61.203 23.2827H60.6288H60.4992L60.4128 23.1895L60.4745 23.0776C60.7181 23.0429 60.9565 22.9782 61.1845 22.8849C61.3371 22.8259 61.4669 22.7191 61.5549 22.5804C61.6349 22.4314 61.6773 22.2649 61.6783 22.0956C61.6783 21.8967 61.6783 21.6481 61.6783 21.3435V10.6469C61.6783 10.2553 61.6042 10.0254 61.4499 9.91349C61.2835 9.81875 61.1048 9.74764 60.919 9.70217L60.6042 9.58408C60.4663 9.53622 60.3338 9.47371 60.2091 9.39762L60.1597 9.27953L60.2584 9.21116C61.3264 9.2671 62.4006 9.29196 63.481 9.29196H65.2836H65.549H65.8454C66.2322 9.29196 66.6438 9.29196 67.08 9.29196C67.4566 9.28291 67.8262 9.18724 68.1604 9.01227H68.2777V9.13658L67.8085 11.6414Z" stroke="white" stroke-width="0.21" stroke-miterlimit="10"/>
<path d="M44.8321 5.63165L43.8291 6.64354L44.8342 7.65331L45.8371 6.64142L44.8321 5.63165Z" fill="white"/>
<path d="M44.8321 5.63165L43.8291 6.64354L44.8342 7.65331L45.8371 6.64142L44.8321 5.63165Z" fill="white"/>
<path d="M50.6018 5.63088L49.5992 6.64313L50.6046 7.65255L51.6073 6.6403L50.6018 5.63088Z" fill="white"/>
<path d="M50.6018 5.63088L49.5992 6.64313L50.6046 7.65255L51.6073 6.6403L50.6018 5.63088Z" fill="white"/>
<path d="M56.2458 7.65109L55.2395 6.64421L56.2458 5.6311L57.2459 6.64421L56.2458 7.65109Z" fill="white"/>
<path d="M56.2458 7.65109L55.2395 6.64421L56.2458 5.6311L57.2459 6.64421L56.2458 7.65109Z" fill="white"/>
<mask id="mask0_1220_3510" style="mask-type:luminance" maskUnits="userSpaceOnUse" x="8" y="4" width="17" height="16">
<path d="M24.817 19.8891C24.8595 19.6842 24.8595 19.4726 24.817 19.2676C24.817 19.4603 24.817 19.6654 24.817 19.8891ZM8.08716 4.84176V4.87905C8.13037 4.81068 8.19828 4.91634 8.24767 5.24576C8.46129 6.44814 8.87895 7.60451 9.48234 8.6642C10.4577 10.0751 12.0134 11.1503 14.6309 11.7284C14.6309 11.7284 18.8659 12.5426 20.0574 12.9714C21.2488 13.4003 22.9341 14.4445 23.6503 15.8927C24.1747 16.9636 24.5606 18.0978 24.7985 19.2676C24.7615 17.7324 24.7985 17.1544 23.675 14.9168C23.1564 13.8229 21.4957 11.8092 19.8721 11.1876C18.5819 10.7215 17.4028 10.3672 15.3038 9.80161C11.4825 8.745 9.47 5.45086 8.80944 4.78582C8.70587 4.65766 8.55824 4.57336 8.39583 4.54964C8.24149 4.54964 8.14889 4.68637 8.08716 4.8169" fill="white"/>
</mask>
<g mask="url(#mask0_1220_3510)">
<path d="M-2.44458 -7.40871L24.8541 4.5745L35.3736 31.8475L8.07487 19.8643L-2.44458 -7.40871Z" fill="url(#paint0_linear_1220_3510)"/>
</g>
<mask id="mask1_1220_3510" style="mask-type:luminance" maskUnits="userSpaceOnUse" x="8" y="4" width="17" height="17">
<path d="M8.67355 8.7015C9.70748 10.9281 11.3308 12.8249 13.3653 14.1834C14.5674 14.8908 15.8425 15.4639 17.1681 15.8927C21.5821 17.2849 22.8723 18.3788 23.4156 18.9071C23.9589 19.4354 24.6935 20.3553 24.817 19.8891C24.9404 19.423 24.3663 17.403 23.644 15.9424C22.9217 14.4818 21.2117 13.5495 20.0511 13.0212C18.1991 12.1759 16.5384 12.0329 14.6803 11.5543C13.264 11.1905 11.9632 10.4694 10.9003 9.45923C9.83754 8.44901 9.04782 7.18289 8.60564 5.78028C8.42044 5.08416 8.26611 4.79204 8.16116 4.79204C7.87719 4.79204 7.93275 6.90526 8.67355 8.67663" fill="white"/>
</mask>
<g mask="url(#mask1_1220_3510)">
<path d="M4.31519 17.5149L10.9948 -6.37074L28.521 7.63867L21.8414 31.5181L4.31519 17.5149Z" fill="url(#paint1_radial_1220_3510)"/>
</g>
<mask id="mask2_1220_3510" style="mask-type:luminance" maskUnits="userSpaceOnUse" x="2" y="19" width="23" height="11">
<path d="M3.42004 28.025L2.87061 27.7267C3.03329 27.8603 3.21975 27.9616 3.42004 28.025ZM20.1746 19.9451C18.4707 20.0942 16.7422 20.896 14.9643 22.9098C14.9643 22.9098 12.1492 26.1977 11.1615 27.0119C10.1737 27.8261 8.46369 28.7833 6.84009 28.6901C5.6728 28.6267 4.51781 28.4179 3.40152 28.0685C4.74114 28.8019 5.25353 29.1189 7.72289 29.2681C8.88348 29.3365 11.4269 28.9014 12.7665 27.7764C13.8098 26.8814 14.7235 26.005 16.2422 24.4823C19.0572 21.6729 22.9032 21.5611 23.7984 21.3187C24.3663 21.1695 24.2737 20.8712 24.1317 20.6971V20.666C24.1688 20.7406 24.0453 20.7406 23.7305 20.6225C22.6996 20.2622 21.6227 20.0529 20.5327 20.001C20.4134 19.9947 20.2939 19.9947 20.1746 20.001" fill="white"/>
</mask>
<g mask="url(#mask2_1220_3510)">
<path d="M34.8179 21.5238L20.6994 32.0464L-7.55005 27.6832L6.56848 17.1668L34.8179 21.5238Z" fill="url(#paint2_linear_1220_3510)"/>
</g>
<mask id="mask3_1220_3510" style="mask-type:luminance" maskUnits="userSpaceOnUse" x="2" y="19" width="23" height="10">
<path d="M13.5012 20.5852C12.2957 21.292 11.1679 22.1254 10.1367 23.0714C6.72902 26.2288 5.14246 26.8006 4.42018 27.0181C3.69789 27.2357 2.52495 27.3476 2.87066 27.7267C3.21637 28.1058 5.25358 28.5906 6.85866 28.6776C8.46374 28.7647 10.1306 27.7515 11.18 26.9995C12.8407 25.7937 13.7852 24.4263 15.1248 23.0403C16.142 21.9879 17.4083 21.2133 18.8046 20.7893C20.201 20.3652 21.6815 20.3057 23.107 20.6163C25.6751 21.3187 23.1749 19.5535 20.5821 19.2303C20.1889 19.1807 19.7931 19.1558 19.3968 19.1557C17.3576 19.1942 15.3515 19.6822 13.5197 20.5852" fill="white"/>
</mask>
<g mask="url(#mask3_1220_3510)">
<path d="M19.1993 12.5053L32.3794 26.0858L8.97613 35.4213L-4.19788 21.8408L19.1993 12.5053Z" fill="url(#paint3_radial_1220_3510)"/>
</g>
<mask id="mask4_1220_3510" style="mask-type:luminance" maskUnits="userSpaceOnUse" x="1" y="4" width="6" height="24">
<path d="M3.21018 8.42181C2.56197 9.38519 1.63596 11.8092 1.92611 13.5495C2.15453 14.9169 2.46937 16.1599 2.96324 18.2359C3.93246 22.108 2.0681 25.483 1.81499 26.3904C1.65448 26.9622 1.95698 27.0119 2.19774 27.0119H2.23478C2.15453 27.0119 2.23478 26.8938 2.47554 26.6825C3.40986 25.9059 4.20355 24.9722 4.82143 23.9229C5.55606 22.3753 5.75978 20.4547 4.93872 17.894C4.93872 17.894 3.56823 13.7794 3.37068 12.5115C3.17313 11.2436 3.23487 9.27331 4.13618 7.9308C4.79063 6.9528 5.56653 6.06301 6.44503 5.28306C5.14244 6.06619 4.59301 6.32724 3.21018 8.42181ZM6.44503 5.28306L6.98211 4.97229C6.78251 5.04082 6.5995 5.15095 6.44503 5.29549" fill="white"/>
</mask>
<g mask="url(#mask4_1220_3510)">
<path d="M2.22856 32.8668L-0.364258 7.41493L6.38325 -0.87014L8.97607 24.5817L2.22856 32.8668Z" fill="url(#paint4_linear_1220_3510)"/>
</g>
<mask id="mask5_1220_3510" style="mask-type:luminance" maskUnits="userSpaceOnUse" x="2" y="4" width="6" height="24">
<path d="M6.98215 4.97229C6.4821 5.07795 5.03753 6.60071 4.14239 7.94323C3.24725 9.28575 3.26577 11.2436 3.37689 12.5239C3.56209 14.5688 4.25351 16.0916 4.74738 17.9562C5.12959 19.3731 5.14708 20.8646 4.79822 22.2902C4.44935 23.7158 3.74563 25.0285 2.75338 26.1045C0.845805 27.9691 3.62383 26.726 5.22273 24.6252C6.64274 22.6144 7.48631 20.2493 7.66122 17.7884C7.67966 16.3882 7.54928 14.9901 7.2723 13.6178C6.30925 9.05578 6.65496 7.40249 6.81547 6.65044C6.97598 5.89838 7.40811 4.97229 7.04388 4.97229H6.98215Z" fill="white"/>
</mask>
<g mask="url(#mask5_1220_3510)">
<path d="M7.74767 27.9629L-3.21008 30.6479L0.84583 4.95364L11.8036 2.26861L7.74767 27.9629Z" fill="url(#paint5_radial_1220_3510)"/>
</g>
<defs>
<linearGradient id="paint0_linear_1220_3510" x1="11.1254" y1="8.58874" x2="21.5713" y2="4.56129" gradientUnits="userSpaceOnUse">
<stop stop-color="#E4E5E6"/>
<stop offset="0.23" stop-color="#848585"/>
<stop offset="0.44" stop-color="#E4E5E6"/>
<stop offset="0.77" stop-color="#848585"/>
<stop offset="1" stop-color="#E4E5E6"/>
</linearGradient>
<radialGradient id="paint1_radial_1220_3510" cx="0" cy="0" r="1" gradientTransform="matrix(2.10673 -7.52201 -13.0171 -10.4016 16.6876 16.6979)" gradientUnits="userSpaceOnUse">
<stop stop-color="#C0BE31"/>
<stop offset="1" stop-color="#A51E27"/>
</radialGradient>
<linearGradient id="paint2_linear_1220_3510" x1="18.5763" y1="18.0106" x2="16.8439" y2="29.2388" gradientUnits="userSpaceOnUse">
<stop stop-color="#E4E5E6"/>
<stop offset="0.23" stop-color="#848585"/>
<stop offset="0.44" stop-color="#E4E5E6"/>
<stop offset="0.77" stop-color="#848585"/>
<stop offset="1" stop-color="#E4E5E6"/>
</linearGradient>
<radialGradient id="paint3_radial_1220_3510" cx="0" cy="0" r="1" gradientTransform="matrix(5.42029 5.59059 15.4517 -6.1665 11.4513 21.3289)" gradientUnits="userSpaceOnUse">
<stop stop-color="#C0BE31"/>
<stop offset="1" stop-color="#A51E27"/>
</radialGradient>
<linearGradient id="paint4_linear_1220_3510" x1="7.85573" y1="23.0334" x2="-0.917868" y2="15.8858" gradientUnits="userSpaceOnUse">
<stop stop-color="#E4E5E6"/>
<stop offset="0.23" stop-color="#848585"/>
<stop offset="0.44" stop-color="#E4E5E6"/>
<stop offset="0.77" stop-color="#848585"/>
<stop offset="1" stop-color="#E4E5E6"/>
</linearGradient>
<radialGradient id="paint5_radial_1220_3510" cx="0" cy="0" r="1" gradientTransform="matrix(-7.54097 1.84714 -2.609 16.5259 6.58461 14.5523)" gradientUnits="userSpaceOnUse">
<stop stop-color="#C0BE31"/>
<stop offset="1" stop-color="#A51E27"/>
</radialGradient>
</defs>
</svg>
